<?xml version="1.0" standalone="no"?>
<!DOCTYPE svg PUBLIC "-//W3C//DTD SVG 20010904//EN"
 "http://www.w3.org/TR/2001/REC-SVG-20010904/DTD/svg10.dtd">
<svg version="1.0" xmlns="http://www.w3.org/2000/svg"
 width="9922.000000pt" height="9922.000000pt" viewBox="0 0 9922.000000 9922.000000"
 preserveAspectRatio="xMidYMid meet">

<g transform="translate(0.000000,9922.000000) scale(0.100000,-0.100000)"
fill="#000000" stroke="none">
<path d="M38627 98890 c-56 -14 -90 -35 -124 -74 -84 -95 -65 -219 54 -355 81
-92 403 -322 628 -448 158 -89 301 -142 393 -146 94 -4 1161 14 1337 23 208
11 324 29 449 71 114 38 191 85 255 154 71 78 94 145 89 255 -10 206 -145 324
-448 393 -88 20 -118 22 -420 20 -382 -3 -1153 13 -1360 27 -217 15 -422 38
-539 61 -126 24 -262 32 -314 19z"/>
<path d="M58975 98849 c-260 -18 -392 -76 -446 -194 -22 -48 -24 -133 -5 -179
32 -77 129 -155 267 -213 41 -18 139 -59 219 -93 369 -157 638 -328 722 -459
l28 -45 0 -3341 c0 -2273 3 -3368 11 -3425 21 -176 63 -284 136 -351 89 -82
190 -96 304 -42 166 78 332 338 403 633 94 391 137 885 162 1881 l6 266 852
12 c468 7 894 16 947 21 322 28 554 261 509 512 -33 181 -197 328 -435 389
-153 39 -496 48 -710 18 -172 -23 -297 -71 -454 -172 -119 -76 -184 -103 -279
-116 -51 -7 -289 -22 -407 -26 -13 0 -7 3799 6 3975 22 283 22 295 5 353 -34
117 -137 205 -324 277 -125 49 -540 177 -727 225 -166 43 -400 82 -535 90 -58
3 -114 7 -125 9 -11 1 -70 -1 -130 -5z"/>
<path d="M94330 98808 c-197 -27 -310 -117 -310 -246 0 -64 21 -113 71 -167
53 -57 116 -99 292 -192 431 -228 741 -455 794 -580 11 -27 13 -799 13 -4611
0 -3198 3 -4611 11 -4688 16 -162 45 -299 78 -370 83 -177 243 -249 389 -175
61 32 137 100 183 168 128 185 241 581 299 1049 43 344 41 175 50 4554 9 3785
11 4177 26 4300 23 189 17 299 -21 368 -36 67 -115 140 -214 198 -84 49 -265
111 -691 238 -523 155 -731 188 -970 154z"/>
<path d="M24871 98789 c-226 -25 -352 -84 -405 -190 -32 -65 -35 -144 -7 -206
40 -88 149 -163 314 -217 136 -44 461 -201 645 -310 159 -96 251 -180 293
-271 18 -38 19 -98 19 -1372 l0 -1333 -27 0 c-16 0 -134 -7 -263 -15 -647 -39
-899 -47 -1376 -40 -852 12 -762 15 -829 -20 -115 -59 -153 -162 -101 -270 49
-98 166 -175 465 -303 392 -168 549 -218 670 -209 77 6 101 15 271 110 l65 36
520 45 c286 25 539 48 562 50 l42 6 4 -1748 c3 -1910 2 -1872 62 -2107 50
-200 155 -304 305 -305 148 0 251 91 368 326 144 287 206 642 242 1384 30 616
33 877 37 3320 3 2173 6 2549 18 2631 19 126 19 281 0 346 -49 164 -240 296
-587 407 -436 138 -588 177 -895 231 -172 30 -294 37 -412 24z"/>
<path d="M76965 98599 c-307 -18 -439 -53 -641 -169 -99 -58 -173 -91 -254
-114 -148 -42 -214 -44 -1855 -72 l-1590 -28 -150 37 c-408 100 -796 154
-1225 173 -145 6 -162 5 -263 -20 -153 -37 -247 -78 -312 -138 -139 -126 -98
-301 92 -401 37 -19 145 -59 238 -87 338 -103 447 -152 541 -245 50 -49 63
-69 72 -110 7 -33 12 -331 16 -870 4 -690 7 -834 21 -909 36 -206 104 -343
235 -477 127 -130 251 -203 452 -267 206 -66 138 -64 1778 -63 1817 0 2272 10
3390 76 357 21 404 32 542 122 171 112 254 287 214 450 -46 188 -236 317 -536
365 -117 18 -712 18 -830 0 -122 -19 -244 -63 -405 -143 -177 -90 -280 -132
-381 -158 -192 -50 -203 -51 -1077 -61 -455 -6 -961 -14 -1125 -20 -365 -12
-930 -3 -1024 15 -37 8 -87 23 -112 33 -41 18 -45 24 -55 71 -8 36 -11 349
-11 1011 l0 958 33 12 c45 17 1257 44 3112 69 831 12 1557 25 1615 31 58 5
132 16 165 25 150 40 298 144 353 249 24 45 27 62 27 146 -1 136 -25 192 -124
290 -88 87 -160 132 -274 172 -154 55 -323 67 -652 47z"/>
<path d="M5195 98146 c-120 -38 -177 -107 -178 -216 0 -87 41 -167 147 -278
80 -84 86 -94 86 -133 0 -33 -6 -47 -31 -70 -33 -31 -120 -61 -229 -79 -687
-114 -1247 -388 -1650 -806 -439 -456 -653 -965 -653 -1559 0 -278 38 -519
124 -780 274 -831 1032 -1478 1979 -1689 584 -129 1245 -107 1800 61 604 183
1155 599 1475 1114 437 704 467 1588 79 2290 -114 205 -261 395 -450 579 -304
297 -673 513 -1127 659 -128 42 -396 111 -428 111 -29 0 -30 16 -4 62 77 134
85 271 24 374 -50 83 -141 154 -294 229 -159 78 -223 100 -371 125 -131 23
-240 25 -299 6z m734 -1621 c292 -42 545 -133 761 -273 337 -218 575 -541 670
-907 42 -161 53 -260 52 -450 -1 -452 -147 -810 -457 -1120 -219 -218 -446
-352 -749 -440 -294 -85 -687 -106 -1036 -55 -232 34 -412 90 -611 191 -162
82 -284 172 -424 313 -232 232 -362 476 -427 798 -19 97 -23 143 -22 328 0
195 3 227 28 344 74 352 250 643 531 879 134 113 337 228 515 292 150 53 394
103 585 119 110 9 474 -3 584 -19z"/>
<path d="M92580 97994 c-14 -2 -59 -9 -100 -15 -93 -14 -185 -47 -233 -83 -20
-16 -48 -52 -63 -82 -49 -100 -18 -205 88 -299 39 -33 127 -82 326 -180 491
-242 647 -347 716 -482 14 -29 16 -145 16 -1236 l0 -1204 -302 -7 c-167 -4
-451 -11 -633 -17 -181 -5 -557 -11 -835 -12 -505 -3 -505 -3 -552 -26 -91
-44 -147 -136 -135 -222 21 -161 224 -313 632 -474 216 -85 374 -113 480 -84
22 6 101 35 175 64 74 29 167 58 205 64 39 6 250 20 470 31 220 11 421 21 448
23 l47 4 0 -2111 c0 -2170 3 -2333 40 -2552 33 -195 76 -292 158 -364 101 -90
237 -87 360 7 103 78 246 401 316 714 32 142 70 445 91 714 25 317 33 1144 40
3930 4 1645 11 2672 18 2815 6 124 11 279 11 345 1 112 -1 124 -27 177 -37 76
-136 167 -235 217 -151 76 -664 230 -967 290 -254 51 -449 70 -555 55z"/>
<path d="M54470 97880 c-144 -31 -213 -180 -144 -317 95 -191 624 -569 949
-679 95 -32 86 -32 993 -9 742 19 848 32 1041 127 103 51 181 124 219 205 23
48 27 71 26 138 0 68 -4 89 -29 138 -50 100 -172 196 -309 242 -138 45 -157
47 -861 50 -876 4 -1259 25 -1581 85 -128 24 -246 32 -304 20z"/>
<path d="M42802 97760 c-134 -19 -227 -50 -377 -124 -215 -107 -290 -128 -551
-151 -265 -23 -1401 -84 -2354 -125 -407 -18 -1273 -24 -1630 -11 -526 19
-964 50 -1190 86 -196 31 -316 8 -397 -77 -124 -129 -68 -302 147 -448 113
-77 688 -336 900 -405 102 -34 127 -38 220 -39 123 -1 211 22 327 84 40 22
108 51 150 65 76 25 97 27 918 69 831 43 840 43 857 24 10 -11 22 -38 28 -59
9 -33 8 -47 -8 -83 -11 -24 -24 -46 -30 -50 -5 -3 -59 -15 -118 -27 -548 -104
-972 -305 -1287 -607 -252 -243 -402 -503 -469 -815 -31 -142 -30 -409 0 -579
56 -305 184 -569 395 -808 179 -203 460 -406 732 -527 523 -235 1237 -295
1853 -157 658 147 1252 606 1466 1134 82 202 117 382 118 600 0 178 -21 315
-72 470 -85 261 -219 469 -436 681 -305 296 -682 485 -1190 596 -116 25 -125
29 -119 48 16 51 17 174 2 220 -12 35 -13 47 -4 50 7 2 156 8 332 14 176 6
397 14 490 17 94 3 600 10 1125 14 916 7 959 8 1050 28 193 43 358 150 417
271 22 45 28 69 28 131 0 64 -5 85 -33 144 -59 125 -182 223 -355 282 -145 50
-277 65 -587 69 -157 2 -313 0 -348 -5z m-2261 -1938 c276 -58 485 -166 665
-346 198 -199 277 -398 276 -701 0 -128 -4 -164 -25 -247 -43 -162 -109 -277
-236 -412 -131 -137 -282 -236 -456 -299 -299 -107 -755 -108 -1073 -2 -374
126 -656 420 -739 771 -27 118 -25 348 5 468 99 397 443 693 892 770 52 8 106
18 120 20 14 3 126 3 250 1 175 -3 246 -8 321 -23z"/>
<path d="M22818 96955 c-26 -7 -78 -27 -115 -45 -77 -37 -53 -34 -673 -65
-173 -9 -441 -23 -595 -31 -395 -21 -1242 -29 -1540 -15 -267 13 -484 33 -620
58 -51 10 -146 17 -220 17 -118 1 -135 -1 -179 -23 -96 -47 -132 -157 -86
-260 24 -51 120 -149 211 -213 152 -108 627 -354 786 -408 160 -53 295 -38
441 48 95 56 161 88 207 101 105 28 1667 131 1998 131 l57 0 -44 -89 c-150
-298 -408 -695 -693 -1066 -458 -598 -1152 -1315 -1858 -1920 -488 -419 -1217
-968 -1594 -1200 -121 -76 -195 -147 -211 -205 -19 -71 -5 -127 44 -176 77
-78 166 -82 366 -15 137 46 190 72 480 234 580 324 1208 725 1615 1030 351
264 763 613 1161 984 l141 132 301 -362 c165 -199 446 -537 624 -752 497 -599
810 -947 911 -1015 83 -56 159 -82 242 -83 151 -2 259 74 317 223 30 79 30
233 -1 350 -64 242 -201 508 -400 778 -145 197 -367 387 -636 546 -157 93
-280 180 -423 298 -136 114 -482 435 -482 449 0 6 53 79 118 162 466 598 857
1155 1121 1596 51 85 127 199 170 255 151 199 169 319 61 427 -70 70 -187 106
-419 129 -148 14 -524 11 -583 -5z"/>
<path d="M89513 96855 c-82 -18 -129 -41 -175 -87 -44 -44 -73 -128 -63 -186
15 -88 101 -189 208 -243 59 -31 465 -340 548 -418 l74 -69 -28 -84 c-80 -234
-251 -634 -416 -973 -390 -801 -895 -1555 -1514 -2263 -288 -330 -689 -737
-975 -991 -153 -136 -206 -219 -207 -323 0 -58 4 -72 30 -109 86 -122 236
-119 493 10 99 50 240 154 538 397 659 538 1268 1157 1852 1881 59 73 109 132
112 132 3 1 12 -11 21 -27 9 -15 69 -115 134 -222 153 -254 327 -568 505 -910
168 -322 447 -831 499 -910 117 -178 289 -271 446 -240 179 35 314 184 350
387 20 107 18 182 -5 317 -35 204 -94 418 -160 582 -103 252 -198 366 -525
625 -187 149 -325 287 -542 543 -139 164 -313 390 -313 407 0 5 66 131 146
281 177 332 523 1024 583 1168 24 58 60 141 79 185 75 175 95 244 90 315 -13
183 -161 324 -518 497 -173 84 -469 209 -601 254 -198 67 -313 89 -469 88 -74
0 -163 -7 -197 -14z"/>
<path d="M58210 96549 c-204 -21 -323 -59 -487 -152 -149 -85 -217 -114 -348
-146 -111 -28 -154 -32 -565 -56 -1033 -60 -1444 -75 -2000 -75 -673 0 -1157
34 -1620 112 -74 12 -174 21 -245 22 -105 1 -126 -2 -170 -22 -131 -60 -175
-181 -113 -306 50 -98 186 -196 537 -385 255 -137 466 -233 561 -255 132 -32
264 -12 402 58 48 25 113 50 145 55 92 17 489 59 703 76 107 8 215 17 240 20
25 3 133 10 239 15 223 11 214 14 256 -76 30 -63 33 -132 8 -162 -14 -15 -48
-25 -148 -42 -880 -149 -1528 -607 -1768 -1250 -65 -175 -82 -279 -82 -500 0
-163 4 -214 23 -310 34 -167 75 -288 148 -435 263 -531 825 -929 1509 -1070
247 -50 349 -59 675 -60 326 0 412 8 665 61 729 153 1348 660 1549 1269 239
727 -30 1458 -700 1904 -268 179 -604 312 -963 382 l-63 12 6 48 c8 62 -7 128
-50 213 -19 38 -33 70 -32 71 15 14 985 53 1748 69 565 13 621 16 693 35 261
69 420 259 387 463 -23 145 -111 253 -270 331 -163 81 -214 90 -520 93 -146 1
-303 -2 -350 -7z m-1835 -1984 c363 -55 656 -220 845 -475 251 -338 252 -836
3 -1189 -161 -229 -440 -403 -745 -465 -200 -41 -530 -46 -721 -11 -280 51
-501 161 -676 336 -229 229 -335 523 -302 839 21 197 79 350 191 499 201 267
493 423 885 474 85 11 428 6 520 -8z"/>
<path d="M78478 93910 c-99 -12 -222 -47 -328 -92 -205 -86 -379 -148 -475
-167 -158 -33 -275 -38 -1960 -96 -2469 -84 -3914 -87 -5075 -9 -313 21 -521
40 -685 65 -90 14 -168 20 -220 17 -169 -9 -268 -94 -268 -228 0 -150 129
-259 529 -449 413 -196 729 -327 934 -388 84 -25 110 -28 230 -28 160 1 217
17 394 111 150 79 205 91 526 119 562 48 2263 143 2293 128 4 -2 7 -969 7
-2148 0 -1428 4 -2177 11 -2246 15 -150 36 -244 73 -324 40 -86 74 -127 135
-163 63 -37 173 -39 239 -4 97 51 172 143 257 312 87 174 120 288 169 590 112
690 145 1414 146 3117 0 490 4 894 8 897 21 13 1010 30 1757 30 938 1 1412
-15 2185 -70 295 -21 406 -6 564 73 88 44 158 111 193 182 24 49 28 68 28 146
0 80 -3 97 -31 155 -55 114 -155 206 -309 283 -133 67 -223 90 -507 132 -362
54 -671 74 -820 55z"/>
<path d="M43940 93061 c-97 -22 -189 -53 -309 -105 -217 -94 -498 -141 -991
-166 -118 -6 -330 -17 -470 -25 -884 -51 -1749 -83 -2855 -106 -612 -13 -2177
-7 -2525 10 -705 34 -1122 66 -1435 112 -185 28 -296 22 -374 -18 -152 -78
-162 -251 -23 -390 111 -111 242 -187 629 -364 543 -247 823 -342 1014 -342
151 1 258 36 426 140 40 25 101 53 135 64 165 50 749 87 2441 155 l167 7 0
-1816 c0 -1187 4 -1851 10 -1918 14 -131 42 -254 77 -327 56 -119 156 -192
263 -191 156 1 267 106 405 384 58 119 79 173 99 260 56 247 84 429 115 745
50 500 60 791 71 1919 5 535 12 977 17 981 8 7 305 18 1133 41 484 14 1703 14
2070 0 157 -5 450 -18 653 -28 408 -19 476 -15 624 32 96 30 216 106 268 169
19 23 47 69 62 102 24 51 28 72 28 149 0 81 -3 97 -32 158 -46 96 -131 175
-248 232 -104 50 -175 67 -405 95 -357 43 -464 52 -705 56 -220 3 -260 2 -335
-15z"/>
<path d="M4760 92324 c-150 -23 -215 -46 -269 -97 -89 -85 -95 -219 -15 -325
42 -54 121 -97 280 -152 187 -65 310 -128 385 -197 95 -89 90 -41 87 -793 l-3
-655 -205 -8 c-354 -14 -2025 -13 -2325 1 -686 32 -1226 82 -1700 158 -217 35
-383 42 -459 20 -73 -21 -139 -84 -156 -148 -37 -135 52 -282 251 -413 97 -64
605 -322 834 -423 99 -44 230 -97 290 -118 97 -33 124 -38 232 -42 155 -6 223
9 447 95 92 36 182 69 200 74 109 33 248 51 569 74 2475 175 5105 180 6897 14
353 -33 508 -17 686 71 100 49 172 122 204 208 33 86 25 206 -18 293 -45 91
-109 159 -221 234 -179 119 -376 184 -691 229 -252 36 -434 49 -605 43 -202
-7 -249 -18 -553 -126 -94 -34 -211 -65 -340 -92 -189 -38 -212 -41 -567 -59
-418 -22 -1451 -68 -1623 -72 l-114 -3 2 175 c3 421 31 1399 41 1450 15 74 7
176 -19 225 -29 59 -113 132 -188 166 -154 70 -483 131 -998 184 -138 14 -276
18 -336 9z"/>
<path d="M20930 91289 c-352 -19 -530 -119 -530 -297 0 -63 39 -141 93 -187
71 -61 159 -94 422 -160 267 -67 389 -108 452 -154 l40 -29 7 -728 c9 -857 10
-873 107 -1064 46 -92 71 -127 152 -208 179 -183 458 -282 897 -322 75 -6 938
-10 2480 -10 2588 0 2413 -4 2540 57 71 34 169 134 206 209 26 54 29 69 29
164 0 94 -3 111 -28 165 -60 129 -162 225 -312 296 -175 82 -338 104 -714 96
-484 -10 -653 -50 -966 -226 -38 -22 -110 -51 -160 -65 -191 -54 -197 -54
-1686 -72 -872 -11 -1406 -14 -1436 -8 -42 8 -50 14 -68 49 -18 37 -20 72 -27
490 -9 524 -2 1215 14 1465 6 96 10 197 9 225 -5 110 -84 196 -221 239 -136
44 -259 57 -693 76 -252 11 -403 11 -607 -1z"/>
<path d="M55165 91250 c-102 -24 -187 -54 -240 -84 -161 -95 -192 -271 -69
-390 56 -55 135 -89 385 -165 275 -85 469 -160 534 -205 88 -63 82 -23 94
-621 6 -291 13 -571 16 -622 13 -209 92 -404 217 -538 178 -191 413 -288 830
-343 123 -16 301 -17 2353 -17 l2220 0 70 22 c135 42 233 124 286 238 53 113
47 238 -19 358 -95 176 -314 300 -590 336 -134 18 -449 24 -627 12 -312 -20
-439 -52 -665 -167 -85 -44 -182 -85 -235 -100 -199 -55 -181 -54 -1335 -69
-700 -8 -1103 -10 -1155 -3 -192 22 -270 55 -292 120 -8 26 -14 251 -18 794
-6 662 -5 775 9 884 18 147 11 214 -30 291 -70 127 -217 198 -484 233 -281 37
-604 56 -935 55 -196 -1 -255 -4 -320 -19z"/>
<path d="M8040 81413 c-211 -32 -283 -52 -362 -102 -101 -64 -130 -184 -72
-291 46 -85 137 -147 338 -230 117 -49 376 -180 492 -249 128 -76 293 -199
356 -264 l48 -50 0 -4661 c0 -3117 4 -4700 11 -4779 22 -250 81 -382 199 -442
166 -84 346 4 488 238 75 124 181 470 227 739 82 488 94 1063 96 4748 1 2449
11 4275 25 4554 6 123 -3 157 -63 239 -37 51 -126 119 -208 160 -60 30 -364
135 -530 183 -161 47 -441 113 -715 168 -209 43 -265 49 -330 39z"/>
<path d="M42065 81404 c-127 -17 -249 -55 -302 -93 -113 -82 -128 -227 -37
-346 37 -49 152 -123 269 -174 55 -24 162 -70 238 -103 317 -139 658 -370 711
-482 14 -30 16 -126 16 -895 0 -680 -3 -863 -12 -866 -7 -2 -125 -11 -263 -19
-137 -9 -374 -24 -525 -33 -209 -13 -451 -17 -1010 -19 -802 -2 -786 -1 -872
-60 -82 -57 -117 -170 -83 -261 23 -60 99 -141 180 -192 211 -134 638 -295
837 -316 81 -9 189 7 283 42 194 71 231 82 314 88 47 3 151 13 231 21 188 20
903 72 913 67 4 -2 7 -651 7 -1441 0 -927 4 -1478 11 -1552 36 -402 146 -581
353 -581 227 0 408 252 536 743 65 253 96 475 121 868 7 121 14 974 21 2475 5
1260 10 2337 11 2395 2 119 -10 153 -79 224 -179 184 -710 360 -1479 491 -225
38 -244 39 -390 19z"/>
<path d="M76585 81404 c-127 -17 -249 -55 -302 -93 -113 -82 -128 -227 -37
-346 37 -49 152 -123 269 -174 55 -24 162 -70 238 -103 317 -139 658 -370 711
-482 14 -30 16 -126 16 -895 0 -680 -3 -863 -12 -866 -7 -2 -125 -11 -263 -19
-137 -9 -374 -24 -525 -33 -209 -13 -451 -17 -1010 -19 -802 -2 -786 -1 -872
-60 -82 -57 -117 -170 -83 -261 23 -60 99 -141 180 -192 211 -134 638 -295
837 -316 81 -9 189 7 283 42 194 71 231 82 314 88 47 3 151 13 231 21 188 20
903 72 913 67 4 -2 7 -651 7 -1441 0 -927 4 -1478 11 -1552 36 -402 146 -581
353 -581 227 0 408 252 536 743 65 253 96 475 121 868 7 121 14 974 21 2475 5
1260 10 2337 11 2395 2 119 -10 153 -79 224 -179 184 -710 360 -1479 491 -225
38 -244 39 -390 19z"/>
<path d="M24272 81379 c-203 -22 -317 -63 -386 -140 -73 -81 -82 -172 -28
-273 46 -84 141 -148 328 -220 242 -92 642 -279 804 -375 47 -27 112 -72 145
-98 l60 -49 3 -2225 2 -2226 -112 -51 c-293 -132 -541 -230 -863 -339 -958
-325 -2310 -649 -3535 -847 -312 -50 -421 -61 -522 -51 -68 7 -70 8 -85 42 -9
22 -18 97 -23 197 -19 333 -9 2187 18 3426 l7 305 220 7 c121 3 436 12 700 18
264 6 563 15 665 21 102 5 318 16 480 24 162 8 538 26 835 40 345 16 565 31
610 40 160 34 289 125 348 244 30 62 32 71 32 181 0 114 -1 117 -38 192 -60
122 -162 197 -323 238 -80 21 -443 50 -617 50 -123 0 -297 -16 -390 -35 -94
-20 -217 -74 -389 -172 -158 -90 -213 -113 -335 -137 -192 -38 -671 -68 -1368
-87 l-410 -11 -160 41 c-410 102 -797 158 -1275 182 -250 12 -285 10 -425 -26
-118 -31 -227 -80 -279 -126 -75 -65 -107 -188 -72 -272 30 -73 112 -128 222
-148 67 -12 421 -143 549 -203 160 -75 260 -148 308 -225 l21 -35 17 -1887
c19 -2070 16 -1975 80 -2173 85 -261 305 -552 482 -639 83 -41 138 -50 262
-42 717 41 1691 269 3010 702 831 273 1582 567 2189 857 88 42 160 76 162 76
2 0 5 -978 7 -2172 3 -1954 5 -2182 20 -2263 32 -175 70 -269 140 -339 62 -62
108 -81 197 -81 65 0 82 4 128 29 105 58 208 193 277 361 103 249 166 536 199
905 45 493 57 937 63 2461 l5 1357 182 6 c99 3 510 11 911 16 402 6 767 15
812 21 151 18 261 69 348 160 248 260 73 637 -338 725 -48 10 -154 17 -312 21
-421 10 -526 -14 -845 -192 -163 -91 -318 -125 -577 -125 l-164 0 6 2268 c3
1247 6 2317 8 2377 1 95 -1 117 -20 157 -27 60 -106 139 -169 171 -124 62
-564 203 -820 261 -358 82 -776 127 -982 105z"/>
<path d="M59350 81384 c-14 -2 -59 -9 -100 -15 -276 -39 -405 -128 -404 -279
2 -148 151 -275 404 -345 249 -69 470 -172 690 -323 111 -76 248 -209 279
-269 l21 -42 0 -959 0 -959 -137 -7 c-325 -16 -856 -26 -1376 -26 -456 0 -581
3 -680 16 -194 26 -303 10 -378 -54 l-40 -34 -72 69 c-320 304 -782 541 -1314
674 l-133 33 21 30 c11 17 36 64 56 104 67 138 47 240 -71 350 -105 98 -353
212 -578 267 -211 51 -348 22 -426 -89 -22 -32 -27 -52 -30 -113 -4 -67 -1
-80 26 -136 17 -35 55 -89 85 -122 62 -69 77 -94 77 -129 0 -71 -50 -110 -161
-126 -415 -62 -725 -156 -1040 -316 -225 -114 -400 -241 -583 -422 -344 -340
-545 -713 -628 -1162 -18 -95 -21 -156 -22 -350 -1 -249 7 -334 50 -530 148
-668 611 -1242 1271 -1573 429 -216 1028 -325 1578 -288 724 50 1307 287 1767
719 l60 57 68 -65 c88 -85 188 -144 401 -236 526 -228 686 -251 924 -135 44
22 98 44 120 50 82 21 637 68 1027 87 l137 6 4 -1968 c4 -2136 1 -2023 57
-2223 56 -199 159 -306 295 -304 75 1 123 21 187 81 156 146 281 452 353 863
54 314 85 626 105 1044 5 127 12 266 15 310 3 44 11 1804 19 3910 l14 3830 27
140 c49 259 27 366 -102 484 -139 128 -384 217 -953 345 -380 86 -806 147
-910 130z m-3536 -3290 c423 -52 758 -205 1021 -469 274 -274 399 -570 412
-970 10 -326 -58 -579 -223 -828 -92 -139 -292 -339 -429 -430 -321 -212 -702
-307 -1177 -294 -306 8 -542 62 -766 175 -190 97 -383 262 -522 447 -65 87
-167 281 -201 385 -86 263 -99 588 -35 870 112 489 475 884 961 1044 266 87
611 112 959 70z m2426 -628 c270 -109 343 -129 455 -123 101 6 176 29 271 82
53 30 82 38 196 54 213 32 350 41 726 48 l352 6 0 -1055 0 -1055 -122 -7 c-68
-3 -280 -16 -473 -27 -448 -27 -1435 -37 -1647 -17 l-136 13 50 80 c77 123
173 328 222 476 172 515 147 1058 -69 1526 -39 85 -40 87 -22 79 6 -3 95 -39
197 -80z"/>
<path d="M93825 81319 c-159 -20 -274 -75 -325 -155 -64 -101 -47 -210 46
-301 58 -56 166 -114 439 -233 401 -176 688 -361 777 -499 l28 -45 0 -2140 c0
-1390 4 -2180 10 -2251 17 -182 56 -306 119 -377 17 -20 31 -38 31 -40 0 -3
-46 -8 -102 -11 -76 -4 -134 -15 -221 -41 -65 -20 -140 -38 -165 -41 -62 -7
-737 -42 -1077 -55 -1085 -42 -2573 -41 -3235 1 -96 6 -222 14 -280 18 -199
12 -293 -9 -357 -83 -36 -40 -56 -115 -44 -166 31 -139 147 -232 497 -401 648
-313 753 -332 1055 -194 169 78 214 92 327 104 138 15 606 47 1022 71 570 32
2228 95 2238 85 10 -10 -64 -1166 -76 -1176 -13 -12 -182 -50 -306 -69 -108
-17 -267 -21 -1387 -40 -696 -12 -1315 -20 -1375 -18 -71 3 -212 22 -404 55
-360 63 -607 86 -920 87 l-235 1 -113 -33 c-243 -69 -342 -151 -342 -281 0
-93 57 -170 165 -221 33 -16 123 -45 199 -65 253 -65 455 -153 521 -226 l35
-39 0 -525 c0 -601 2 -622 75 -770 135 -276 419 -419 900 -455 106 -8 836 -10
2470 -8 2155 3 2324 5 2383 21 197 54 306 167 331 343 40 280 -151 475 -517
529 -263 38 -734 43 -898 9 -100 -20 -228 -69 -346 -133 -63 -34 -130 -59
-208 -80 -218 -57 -248 -60 -800 -71 -566 -11 -2259 -14 -2309 -4 -63 13 -61
-9 -54 631 l6 581 26 13 c17 9 80 14 181 16 601 11 1267 26 1745 38 308 8 745
19 970 25 762 19 1038 30 1130 46 160 26 272 96 315 196 32 74 26 194 -13 260
-56 96 -174 175 -317 213 -36 9 -70 19 -77 20 -8 3 7 75 48 237 97 376 238
891 253 923 7 17 43 69 78 116 84 112 112 176 112 255 -1 165 -151 259 -461
289 l-71 7 52 52 c66 65 120 144 184 271 105 210 158 469 202 985 37 443 41
623 50 2185 8 1488 10 1567 29 1710 16 116 19 163 11 208 -29 185 -187 283
-720 448 -544 167 -997 236 -1305 198z"/>
<path d="M5770 80739 c-231 -20 -362 -72 -415 -163 -52 -91 -40 -177 35 -259
58 -64 156 -122 365 -218 88 -41 212 -104 275 -140 155 -88 414 -264 445 -301
l25 -30 0 -1139 0 -1139 -22 -4 c-65 -15 -893 -27 -1539 -24 l-735 3 -59 -30
c-112 -57 -149 -169 -92 -280 28 -57 129 -157 228 -228 100 -71 423 -214 585
-258 133 -36 285 -24 394 31 64 33 224 80 305 90 74 9 678 30 857 30 l78 0 3
-2502 c4 -2706 1 -2545 53 -2757 53 -213 162 -322 320 -322 105 0 194 48 265
142 184 247 291 679 356 1432 12 151 16 487 23 1962 4 979 8 2505 9 3390 1
1369 3 1624 16 1705 35 227 36 238 25 302 -15 82 -51 149 -113 216 -92 97
-218 156 -542 257 -281 87 -725 198 -897 224 -75 12 -140 20 -145 20 -4 -1
-51 -5 -103 -10z"/>
<path d="M37900 80663 c-65 -11 -151 -47 -189 -79 -58 -50 -81 -99 -81 -174 0
-114 75 -210 263 -337 293 -196 557 -448 557 -529 0 -75 -132 -368 -308 -684
-262 -470 -605 -958 -976 -1390 -475 -552 -1167 -1204 -1835 -1730 -215 -169
-269 -215 -311 -266 -106 -128 -88 -294 39 -361 86 -45 232 -22 401 65 182 93
851 523 1174 754 746 535 1355 1076 1812 1611 53 62 100 112 105 112 11 0 249
-330 878 -1215 306 -432 645 -883 704 -937 107 -98 214 -149 340 -159 234 -20
447 157 464 388 11 155 -34 299 -178 570 -188 351 -325 551 -502 731 -88 89
-156 135 -287 191 -132 58 -168 80 -281 174 -211 177 -592 612 -680 778 l-22
40 50 75 c254 378 507 835 627 1132 66 164 79 219 66 288 -31 163 -168 296
-518 503 -341 201 -779 390 -1026 440 -69 15 -225 19 -286 9z"/>
<path d="M72420 80663 c-65 -11 -151 -47 -189 -79 -58 -50 -81 -99 -81 -174 0
-114 75 -210 263 -337 293 -196 557 -448 557 -529 0 -75 -132 -368 -308 -684
-262 -470 -605 -958 -976 -1390 -475 -552 -1167 -1204 -1835 -1730 -215 -169
-269 -215 -311 -266 -106 -128 -88 -294 39 -361 86 -45 232 -22 401 65 182 93
851 523 1174 754 746 535 1355 1076 1812 1611 53 62 100 112 105 112 11 0 249
-330 878 -1215 306 -432 645 -883 704 -937 107 -98 214 -149 340 -159 234 -20
447 157 464 388 11 155 -34 299 -178 570 -188 351 -325 551 -502 731 -88 89
-156 135 -287 191 -132 58 -168 80 -281 174 -211 177 -592 612 -680 778 l-22
40 50 75 c254 378 507 835 627 1132 66 164 79 219 66 288 -31 163 -168 296
-518 503 -341 201 -779 390 -1026 440 -69 15 -225 19 -286 9z"/>
<path d="M89999 80616 c-105 -37 -160 -101 -167 -194 -2 -31 1 -76 7 -98 14
-52 72 -142 144 -222 32 -34 57 -68 57 -75 0 -16 -76 -63 -125 -76 -22 -6
-111 -22 -197 -36 -657 -107 -1173 -354 -1548 -741 -389 -402 -569 -826 -570
-1343 -1 -599 260 -1129 753 -1532 395 -323 849 -507 1427 -575 179 -22 601
-25 770 -5 459 52 862 192 1197 415 497 332 811 779 918 1311 130 642 -66
1252 -560 1741 -271 268 -633 478 -1065 619 -63 21 -116 39 -118 40 -1 1 15
36 37 76 99 185 70 326 -92 445 -71 53 -239 136 -377 187 -182 68 -401 96
-491 63z m493 -1490 c396 -61 698 -221 922 -487 207 -245 296 -492 296 -818 0
-148 -15 -265 -50 -380 -93 -314 -355 -619 -669 -780 -259 -133 -550 -190
-911 -178 -517 17 -917 188 -1185 509 -134 160 -209 306 -262 507 -34 129 -43
397 -19 543 58 353 256 654 561 850 219 142 474 221 805 252 88 8 417 -4 512
-18z"/>
<path d="M1362 79035 c-279 -53 -398 -111 -448 -220 -39 -83 -27 -156 39 -231
56 -64 99 -85 307 -154 409 -136 642 -249 718 -348 l27 -35 5 -1911 6 -1911
21 -81 c56 -207 167 -427 275 -540 135 -143 300 -197 488 -160 391 78 1059
308 1835 631 864 361 1300 605 1405 789 61 105 30 219 -74 271 -89 44 -157 35
-381 -53 -206 -80 -724 -251 -1005 -331 -135 -38 -495 -129 -800 -202 -500
-118 -565 -132 -652 -133 -141 -1 -132 -19 -130 271 8 914 54 3536 63 3660 14
182 9 248 -25 318 -34 68 -120 149 -198 185 -173 80 -464 133 -1047 190 -250
25 -275 24 -429 -5z"/>
<path d="M40400 75194 c-203 -25 -286 -50 -346 -106 -54 -50 -79 -111 -70
-175 13 -100 83 -172 245 -253 103 -51 260 -154 334 -220 98 -85 150 -154 168
-223 13 -45 12 -46 -35 -129 -144 -250 -520 -778 -771 -1083 -368 -449 -834
-916 -1269 -1274 -468 -384 -972 -717 -1427 -941 -146 -71 -232 -136 -267
-200 -19 -37 -23 -56 -20 -106 5 -77 38 -131 105 -171 44 -26 55 -28 148 -27
115 1 197 24 510 139 698 257 1347 610 1943 1059 324 244 534 428 858 751 247
246 394 406 599 654 64 77 120 141 122 141 17 0 922 -797 2342 -2064 167 -149
333 -293 369 -319 220 -161 425 -167 565 -18 178 190 150 468 -75 766 -189
248 -493 593 -651 735 -169 153 -273 218 -513 316 -252 104 -272 113 -373 164
-202 101 -498 317 -971 708 -211 175 -320 271 -320 282 0 5 46 82 102 172 210
338 231 373 268 447 70 140 74 186 25 286 -35 72 -111 141 -265 240 -271 174
-666 346 -965 421 -98 25 -279 38 -365 28z"/>
<path d="M74920 75194 c-203 -25 -286 -50 -346 -106 -54 -50 -79 -111 -70
-175 13 -100 83 -172 245 -253 103 -51 260 -154 334 -220 98 -85 150 -154 168
-223 13 -45 12 -46 -35 -129 -144 -250 -520 -778 -771 -1083 -368 -449 -834
-916 -1269 -1274 -468 -384 -972 -717 -1427 -941 -146 -71 -232 -136 -267
-200 -19 -37 -23 -56 -20 -106 5 -77 38 -131 105 -171 44 -26 55 -28 148 -27
115 1 197 24 510 139 698 257 1347 610 1943 1059 324 244 534 428 858 751 247
246 394 406 599 654 64 77 120 141 122 141 17 0 922 -797 2342 -2064 167 -149
333 -293 369 -319 220 -161 425 -167 565 -18 178 190 150 468 -75 766 -189
248 -493 593 -651 735 -169 153 -273 218 -513 316 -252 104 -272 113 -373 164
-202 101 -498 317 -971 708 -211 175 -320 271 -320 282 0 5 46 82 102 172 210
338 231 373 268 447 70 140 74 186 25 286 -35 72 -111 141 -265 240 -271 174
-666 346 -965 421 -98 25 -279 38 -365 28z"/>
<path d="M24820 63894 c-14 -2 -59 -9 -100 -15 -276 -39 -405 -128 -404 -279
2 -148 151 -275 404 -345 249 -69 470 -172 690 -323 111 -76 248 -209 279
-269 l21 -42 0 -959 0 -959 -137 -7 c-325 -16 -856 -26 -1376 -26 -456 0 -581
3 -680 16 -194 26 -303 10 -378 -54 l-40 -34 -72 69 c-320 304 -782 541 -1314
674 l-133 33 21 30 c11 17 36 64 56 104 67 138 47 240 -71 350 -105 98 -353
212 -578 267 -211 51 -348 22 -426 -89 -22 -32 -27 -52 -30 -113 -4 -67 -1
-80 26 -136 17 -35 55 -89 85 -122 62 -69 77 -94 77 -129 0 -71 -50 -110 -161
-126 -415 -62 -725 -156 -1040 -316 -225 -114 -400 -241 -583 -422 -344 -340
-545 -713 -628 -1162 -18 -95 -21 -156 -22 -350 -1 -249 7 -334 50 -530 148
-668 611 -1242 1271 -1573 429 -216 1028 -325 1578 -288 724 50 1307 287 1767
719 l60 57 68 -65 c88 -85 188 -144 401 -236 526 -228 686 -251 924 -135 44
22 98 44 120 50 82 21 637 68 1027 87 l137 6 4 -1968 c4 -2136 1 -2023 57
-2223 56 -199 159 -306 295 -304 75 1 123 21 187 81 156 146 281 452 353 863
54 314 85 626 105 1044 5 127 12 266 15 310 3 44 11 1804 19 3910 l14 3830 27
140 c49 259 27 366 -102 484 -139 128 -384 217 -953 345 -380 86 -806 147
-910 130z m-3536 -3290 c423 -52 758 -205 1021 -469 274 -274 399 -570 412
-970 10 -326 -58 -579 -223 -828 -92 -139 -292 -339 -429 -430 -321 -212 -702
-307 -1177 -294 -306 8 -542 62 -766 175 -190 97 -383 262 -522 447 -65 87
-167 281 -201 385 -86 263 -99 588 -35 870 112 489 475 884 961 1044 266 87
611 112 959 70z m2426 -628 c270 -109 343 -129 455 -123 101 6 176 29 271 82
53 30 82 38 196 54 213 32 350 41 726 48 l352 6 0 -1055 0 -1055 -122 -7 c-68
-3 -280 -16 -473 -27 -448 -27 -1435 -37 -1647 -17 l-136 13 50 80 c77 123
173 328 222 476 172 515 147 1058 -69 1526 -39 85 -40 87 -22 79 6 -3 95 -39
197 -80z"/>
<path d="M73114 63877 c-62 -21 -96 -45 -129 -90 -24 -34 -30 -54 -33 -109 -4
-59 0 -76 23 -124 33 -67 124 -160 266 -270 271 -212 542 -364 736 -415 77
-20 83 -20 733 -5 737 18 781 20 935 46 266 46 455 146 530 282 27 48 30 62
30 143 0 78 -4 97 -27 140 -64 120 -188 206 -374 257 -77 21 -101 22 -844 29
-421 4 -837 12 -925 18 -219 16 -463 47 -592 76 -136 31 -273 40 -329 22z"/>
<path d="M58775 63870 c-136 -8 -203 -24 -278 -63 -89 -47 -137 -122 -137
-214 1 -131 107 -232 351 -332 136 -55 386 -173 519 -243 238 -126 385 -230
431 -305 l24 -38 5 -4740 5 -4740 22 -92 c51 -222 145 -323 299 -323 194 0
367 217 504 631 96 291 146 561 191 1044 8 80 14 645 18 1682 3 859 8 1564 11
1567 3 3 424 14 935 25 512 12 954 23 983 27 123 13 226 68 318 167 131 142
165 327 88 486 -35 72 -150 186 -229 228 -139 74 -352 100 -735 90 -330 -9
-481 -46 -667 -164 -219 -140 -328 -177 -551 -187 l-133 -6 6 2347 c2 1292 5
2380 5 2420 0 153 -83 269 -250 350 -86 41 -406 150 -711 242 -357 107 -730
159 -1024 141z"/>
<path d="M93795 63825 c-192 -45 -278 -91 -323 -175 -19 -37 -23 -56 -20 -105
8 -130 116 -215 403 -315 119 -42 386 -172 505 -245 132 -82 279 -195 335
-257 89 -99 85 -74 85 -523 l0 -395 -22 0 c-13 0 -187 -10 -388 -21 -270 -15
-540 -22 -1041 -26 -608 -5 -683 -4 -755 12 -197 42 -355 28 -429 -36 l-35
-31 -28 24 c-16 12 -65 54 -108 92 -157 135 -404 286 -629 382 -132 56 -394
143 -526 174 l-95 23 45 88 c41 80 44 94 44 161 0 60 -5 83 -28 130 -70 143
-316 309 -559 377 -213 60 -320 50 -407 -37 -97 -98 -91 -212 22 -402 47 -80
63 -137 49 -175 -14 -37 -95 -85 -144 -85 -51 0 -245 -33 -396 -66 -879 -197
-1527 -721 -1760 -1422 -65 -196 -90 -355 -90 -568 0 -560 211 -1075 600
-1464 200 -200 430 -364 685 -490 283 -139 540 -215 895 -265 156 -22 619 -31
788 -16 344 33 642 113 927 250 276 133 461 266 696 502 l167 166 58 -39 c148
-99 590 -294 778 -342 169 -44 260 -33 426 53 58 30 116 52 146 56 27 4 288
23 580 44 l532 36 5 -330 c5 -343 15 -451 58 -605 42 -155 127 -264 230 -294
65 -20 82 -20 147 -1 115 34 209 144 327 380 109 220 156 375 194 640 57 395
68 724 77 2310 8 1509 14 1790 43 1900 31 116 38 246 17 317 -31 108 -119 193
-281 273 -193 94 -692 238 -1060 304 -371 67 -567 77 -740 36z m-3431 -2165
c412 -39 742 -181 991 -425 189 -184 302 -390 356 -648 31 -146 31 -389 0
-537 -98 -467 -466 -846 -969 -999 -195 -60 -356 -81 -612 -81 -526 0 -906
131 -1226 425 -212 193 -341 413 -397 675 -29 137 -28 366 2 510 52 246 165
448 356 635 311 304 708 448 1250 454 77 0 189 -4 249 -9z m2299 -564 c412
-172 526 -182 755 -70 81 39 110 48 223 64 72 11 199 24 282 30 84 6 214 15
289 20 75 6 234 13 352 17 l216 6 0 -796 0 -797 -27 0 c-16 0 -140 -7 -278
-15 -388 -22 -1058 -37 -1522 -33 -232 1 -424 5 -427 8 -3 3 11 47 30 98 182
484 174 1037 -20 1457 -19 41 -33 75 -31 75 2 0 73 -29 158 -64z"/>
<path d="M42197 63739 c-307 -42 -431 -122 -431 -279 0 -141 127 -243 496
-401 242 -104 492 -248 671 -387 l57 -45 0 -833 0 -833 -42 -5 c-155 -20
-1779 -48 -2493 -44 -564 3 -562 3 -635 -60 -53 -45 -73 -85 -73 -147 0 -70
31 -134 100 -206 116 -122 212 -178 508 -299 348 -141 438 -149 640 -55 44 21
123 49 175 62 91 22 130 25 880 48 432 14 820 25 863 25 l77 0 0 -727 c0 -872
12 -1087 72 -1283 53 -175 159 -273 293 -272 123 1 211 55 292 178 189 291
298 730 343 1379 6 88 13 180 15 205 3 25 9 684 14 1465 6 975 13 1444 21
1495 35 231 32 328 -14 419 -34 66 -127 149 -227 201 -136 71 -630 241 -914
315 -307 80 -527 107 -688 84z"/>
<path d="M8340 63265 c-36 -8 -94 -23 -130 -33 -67 -20 -130 -34 -354 -77 -93
-18 -162 -25 -248 -25 -66 0 -386 -13 -711 -30 -1569 -78 -2429 -101 -3127
-81 -554 16 -886 41 -1220 91 -170 25 -328 26 -401 3 -104 -34 -171 -135 -155
-234 23 -147 184 -267 599 -449 552 -241 726 -291 927 -269 91 10 126 19 362
92 223 69 350 83 1128 127 801 44 1800 91 2450 114 228 9 484 18 568 22 l152
6 0 -44 c0 -72 -29 -382 -56 -598 -54 -440 -124 -809 -245 -1290 -71 -287 -82
-355 -77 -484 3 -78 9 -110 25 -141 75 -142 226 -164 393 -57 80 51 235 206
292 292 28 41 83 143 124 225 138 282 195 447 409 1185 178 613 249 846 263
869 10 14 52 68 95 121 43 52 94 128 115 169 32 64 36 83 36 145 0 88 -25 146
-90 206 -121 111 -301 146 -804 155 -202 4 -268 2 -320 -10z"/>
<path d="M77415 62824 c-94 -10 -236 -35 -276 -49 -23 -9 -89 -40 -147 -71
-195 -105 -278 -113 -1937 -189 -1642 -75 -2549 -77 -3375 -9 -102 8 -225 22
-275 31 -49 9 -144 17 -210 17 -109 1 -125 -1 -169 -24 -28 -14 -64 -42 -80
-63 -42 -53 -49 -149 -15 -222 24 -54 171 -208 246 -259 47 -32 352 -164 576
-250 317 -122 418 -125 632 -22 129 63 192 84 287 96 46 6 463 22 927 35 901
26 861 28 861 -23 0 -43 -17 -60 -68 -67 -100 -15 -336 -67 -449 -100 -214
-62 -415 -150 -587 -257 -248 -154 -482 -402 -599 -633 -91 -182 -130 -351
-130 -560 1 -424 203 -827 557 -1111 299 -240 607 -386 991 -469 l100 -21 3
-231 2 -231 -132 -6 c-73 -3 -270 -11 -438 -16 -1727 -56 -2732 -34 -3675 81
-371 46 -483 33 -569 -61 -113 -125 -51 -313 149 -455 137 -97 653 -328 960
-428 225 -74 357 -95 505 -78 125 14 212 38 405 111 88 33 214 74 280 90 242
60 293 63 1650 95 358 9 963 24 1345 35 382 11 875 25 1095 31 531 15 1997 15
2405 0 351 -13 789 -36 965 -51 258 -23 413 -9 556 51 106 43 151 72 202 129
61 67 81 129 75 229 -8 134 -80 245 -222 340 -154 104 -264 143 -562 200 -341
65 -483 83 -649 85 -134 1 -160 -2 -246 -26 -52 -14 -138 -45 -190 -68 -195
-87 -305 -114 -559 -140 -332 -33 -2270 -120 -2302 -103 -5 2 -8 94 -8 204 0
151 3 201 13 203 6 3 68 16 137 31 231 49 483 146 665 256 88 53 267 186 363
268 133 116 289 323 354 471 69 155 105 317 115 505 37 752 -614 1406 -1591
1597 -95 18 -115 25 -111 38 4 8 9 45 12 83 5 58 9 68 27 72 63 13 1222 27
2021 24 913 -2 921 -2 998 19 172 47 310 155 357 279 28 75 25 196 -7 258 -74
141 -256 253 -499 306 -87 19 -135 21 -409 24 -170 1 -328 1 -350 -1z m-2450
-1724 c359 -33 614 -130 832 -318 316 -272 354 -712 86 -1002 -73 -79 -219
-192 -313 -244 -227 -123 -540 -185 -875 -173 -183 7 -309 26 -445 69 -281 89
-524 279 -631 493 -100 202 -89 476 28 674 47 80 154 195 241 261 256 193 645
279 1077 240z"/>
<path d="M39775 62519 c-198 -27 -387 -95 -508 -184 -55 -39 -166 -77 -274
-94 -119 -18 -1000 -59 -1483 -68 l-295 -5 -280 45 c-458 75 -753 107 -995
107 -111 0 -152 -5 -233 -25 -184 -47 -280 -106 -323 -200 -44 -94 -24 -186
56 -259 51 -45 115 -75 230 -105 157 -42 410 -146 492 -202 54 -37 99 -82 118
-119 16 -33 18 -121 29 -1379 13 -1392 14 -1430 56 -1591 23 -89 76 -207 129
-290 53 -81 257 -296 349 -367 136 -105 308 -172 447 -174 176 -3 938 178
1445 341 587 190 1549 582 2080 847 428 214 588 322 636 426 54 120 -15 257
-144 288 -99 23 -145 12 -602 -154 -429 -156 -1171 -353 -1770 -471 -550 -108
-1229 -194 -1455 -183 -141 6 -141 6 -161 87 -7 28 7 1518 24 2600 l2 145 80
3 c291 9 2964 144 3023 152 181 25 348 118 427 238 13 21 32 66 41 102 29 115
-5 230 -94 319 -93 93 -237 153 -411 170 -119 13 -547 13 -636 0z"/>
<path d="M55218 62056 c-85 -30 -140 -94 -158 -181 -19 -89 18 -200 103 -308
34 -44 67 -125 67 -165 0 -42 -44 -126 -78 -151 -48 -34 -112 -58 -172 -66
-233 -29 -546 -108 -784 -196 -363 -136 -646 -316 -912 -583 -216 -217 -335
-381 -449 -619 -143 -299 -206 -607 -192 -942 24 -575 234 -1060 632 -1460
493 -495 1150 -745 1953 -745 687 1 1275 186 1742 549 567 440 858 1003 887
1716 13 328 -49 626 -193 924 -283 588 -805 1009 -1514 1221 -58 17 -111 33
-118 36 -8 2 7 29 42 76 203 266 164 439 -154 675 -202 151 -412 233 -590 232
-41 0 -92 -6 -112 -13z m359 -1711 c202 -30 343 -74 513 -161 258 -132 494
-375 619 -637 134 -282 173 -644 106 -970 -54 -264 -182 -500 -380 -702 -294
-300 -676 -445 -1175 -445 -576 0 -1008 199 -1313 605 -72 95 -162 267 -198
375 -55 168 -85 399 -75 570 24 381 146 673 389 927 255 266 577 412 997 453
127 12 383 4 517 -15z"/>
<path d="M4484 61395 c-164 -29 -265 -77 -311 -147 -22 -32 -28 -55 -31 -107
-3 -58 0 -72 27 -117 54 -92 152 -145 391 -209 221 -60 427 -144 478 -194 l32
-33 0 -583 0 -583 -247 -8 c-376 -13 -1596 -10 -1963 4 -691 26 -1249 71
-1675 135 -91 13 -197 22 -270 22 -110 0 -125 -2 -170 -26 -73 -37 -110 -101
-110 -188 1 -51 7 -78 27 -117 36 -69 139 -162 254 -230 164 -96 660 -309 944
-404 201 -68 290 -84 415 -77 124 8 170 20 399 107 346 131 438 139 2091 200
284 10 898 30 1640 52 542 16 2174 16 2595 0 400 -15 781 -37 1045 -58 362
-30 550 -11 725 73 283 136 322 437 81 627 -115 90 -283 163 -462 201 -234 50
-789 89 -935 66 -84 -14 -241 -65 -387 -126 -99 -41 -261 -76 -496 -105 -230
-29 -2471 -131 -2490 -114 -3 3 4 293 14 647 11 353 20 701 20 772 0 128 -1
132 -33 197 -84 172 -263 242 -772 302 -297 36 -691 46 -826 21z"/>
<path d="M7025 58185 c-157 -22 -243 -55 -302 -117 -91 -95 -82 -239 20 -322
53 -42 130 -81 278 -139 201 -78 354 -164 447 -251 63 -59 62 -49 62 -461 0
-206 -1 -376 -2 -376 -12 -6 -3265 -53 -3272 -48 -4 4 -5 173 -1 376 4 202 7
402 8 445 0 67 -3 84 -32 142 -37 75 -93 129 -177 170 -120 59 -399 112 -834
160 -400 44 -482 49 -557 37 -166 -29 -272 -80 -328 -159 -27 -40 -30 -51 -30
-121 0 -68 3 -83 28 -119 54 -82 97 -106 423 -231 100 -38 201 -79 225 -91 85
-43 205 -139 232 -185 9 -15 13 -424 17 -1620 5 -1452 7 -1609 23 -1700 46
-267 117 -407 246 -483 41 -24 56 -27 136 -27 111 0 163 22 246 104 102 102
184 272 263 541 l42 145 105 2 c57 1 730 9 1494 17 765 9 1479 18 1587 21
l197 6 6 -48 c42 -339 84 -478 178 -580 85 -93 221 -121 335 -68 62 29 149
108 192 176 94 146 174 438 209 764 6 55 22 775 36 1600 15 897 30 1556 37
1640 18 202 16 279 -11 346 -78 201 -320 301 -1050 434 -213 38 -315 43 -476
20z m505 -2984 l0 -679 -182 -6 c-253 -8 -3117 -40 -3122 -35 -7 7 23 1351 29
1358 7 6 2263 37 2893 39 l382 2 0 -679z"/>
<path d="M42426 57779 c-254 -33 -377 -126 -377 -284 0 -65 25 -118 80 -168
49 -44 66 -53 211 -110 211 -82 442 -214 504 -288 l26 -31 0 -419 c0 -327 -3
-420 -12 -424 -12 -3 -1244 -36 -1347 -35 l-43 0 3 528 4 527 -28 60 c-33 70
-73 115 -142 160 -162 103 -509 176 -1100 231 -248 23 -350 13 -431 -42 l-38
-26 -80 16 c-73 14 -204 30 -476 56 -148 15 -318 12 -385 -5 -33 -9 -94 -31
-136 -50 -96 -44 -151 -51 -519 -70 -805 -41 -1348 -44 -1575 -10 -169 26
-303 30 -366 12 -111 -33 -176 -122 -167 -229 13 -149 130 -255 472 -428 95
-47 218 -102 272 -121 88 -30 110 -34 199 -33 117 1 199 20 289 68 42 22 84
36 122 40 33 3 129 13 214 21 173 18 1193 84 1199 79 5 -4 -35 -842 -46 -956
l-6 -68 -51 -19 c-29 -10 -94 -24 -146 -30 -135 -15 -908 -54 -950 -47 -19 3
-78 14 -130 25 -172 36 -745 91 -953 91 -131 0 -338 -55 -424 -113 -87 -59
-124 -142 -103 -235 25 -111 120 -184 290 -223 168 -38 410 -134 482 -192 16
-13 17 -65 20 -678 l3 -664 24 -70 c89 -268 358 -581 571 -665 104 -41 144
-38 371 23 622 170 1340 446 1979 763 448 221 597 314 703 435 l46 52 4 -469
c4 -524 5 -530 81 -690 117 -247 343 -301 534 -129 134 121 203 259 285 570
l13 50 619 17 c341 9 672 17 736 17 l115 1 13 -114 c36 -332 128 -536 270
-599 112 -50 252 -10 349 99 92 103 203 350 236 521 28 149 56 461 76 858 16
312 35 1328 53 2851 1 69 -3 89 -26 137 -65 131 -175 195 -470 272 -213 55
-803 168 -857 164 -8 -1 -46 -6 -84 -10z m-2255 -893 c135 -67 234 -138 275
-197 l29 -42 3 -1100 2 -1099 -40 35 c-99 85 -168 78 -590 -53 -496 -154 -917
-277 -1100 -320 -341 -80 -859 -174 -923 -168 l-32 3 -3 553 c-2 437 0 554 10
557 7 3 413 34 902 70 577 42 909 71 949 81 118 30 190 79 233 156 23 44 28
65 28 123 1 162 -115 281 -321 332 -38 10 -69 18 -71 19 -6 3 71 339 133 579
112 435 124 472 180 547 l48 66 86 -42 c47 -24 138 -69 202 -100z m2699 -2061
l0 -615 -62 0 c-35 0 -297 -7 -583 -15 -286 -8 -573 -15 -637 -15 l-118 0 0
610 0 610 83 1 c45 0 305 9 577 18 272 10 550 19 618 20 l122 1 0 -615z"/>
<path d="M94660 57626 c-30 -8 -89 -26 -131 -40 -68 -23 -112 -28 -390 -45
-963 -61 -1835 -91 -2669 -91 -768 0 -1430 23 -1620 56 -237 40 -358 26 -435
-50 -86 -87 -83 -193 9 -293 74 -82 199 -159 481 -298 583 -287 755 -315 1066
-170 53 25 127 52 165 60 101 22 1192 84 2019 115 313 12 988 36 1252 46 l183
6 -5 -193 c-3 -107 -8 -354 -11 -550 l-6 -355 -147 -37 c-80 -20 -180 -41
-221 -47 -41 -5 -701 -17 -1466 -26 l-1391 -16 -107 31 c-293 84 -744 147
-1121 158 -514 14 -770 -74 -801 -275 -4 -30 -1 -57 11 -88 40 -104 119 -154
335 -208 178 -46 293 -87 415 -149 119 -61 210 -143 219 -198 3 -19 10 -250
15 -514 10 -534 10 -536 82 -683 109 -224 348 -370 694 -428 195 -32 474 -35
2825 -31 2526 3 2369 0 2498 58 215 97 324 254 300 430 -11 84 -44 146 -113
215 -138 138 -300 189 -675 213 -204 14 -458 14 -568 1 -105 -12 -292 -74
-430 -143 -222 -112 -336 -134 -742 -148 -475 -16 -2799 -17 -2826 -2 -12 7
-23 25 -25 40 -2 16 -2 263 1 550 4 409 8 525 18 535 14 14 79 16 1412 37 689
12 2015 37 2365 45 290 7 448 39 560 114 209 141 163 402 -95 531 -41 20 -105
46 -142 56 -38 11 -68 25 -68 32 0 25 53 260 144 647 l94 395 70 128 c80 146
102 204 102 271 0 109 -48 180 -154 232 -121 59 -270 78 -656 85 -208 4 -277
2 -320 -9z"/>
<path d="M76163 57230 c-172 -17 -269 -53 -331 -124 -73 -83 -67 -195 15 -286
53 -59 139 -104 311 -164 219 -77 358 -144 421 -204 l41 -39 0 -286 0 -287
-69 0 c-114 0 -2407 -38 -2698 -45 l-273 -7 0 169 c0 92 5 238 11 323 9 120 9
168 0 212 -23 107 -103 191 -227 238 -123 45 -768 147 -989 156 -229 9 -476
-23 -602 -77 -53 -23 -116 -80 -138 -125 -23 -48 -21 -133 4 -181 47 -94 148
-151 399 -227 252 -76 437 -155 507 -217 l35 -31 0 -1357 c0 -1360 3 -1476 36
-1611 73 -290 292 -363 532 -176 124 97 246 291 337 536 15 41 30 78 34 81 3
4 578 12 1276 18 699 6 1401 14 1561 17 l291 6 13 -78 c39 -246 121 -403 240
-464 182 -93 380 3 500 240 86 171 136 374 181 745 22 174 23 224 29 1390 6
1063 9 1220 23 1292 26 131 2 218 -80 294 -77 71 -180 109 -459 170 -477 104
-456 100 -654 104 -102 2 -226 0 -277 -5z m457 -2540 l0 -500 -162 0 c-205 0
-1857 -17 -2440 -25 l-438 -6 0 495 0 496 213 1 c116 0 752 9 1412 18 660 10
1248 19 1308 20 l107 1 0 -500z"/>
<path d="M59355 46428 c-304 -34 -439 -126 -439 -298 0 -147 83 -224 379 -346
238 -98 573 -273 715 -372 86 -61 176 -147 211 -201 l29 -45 0 -4577 c0 -3078
3 -4618 10 -4705 34 -411 145 -596 368 -611 l67 -5 67 56 c111 92 207 235 272
402 117 302 177 787 217 1744 8 186 14 1513 19 4095 7 3407 9 3832 24 3930 18
129 20 212 6 285 -25 132 -105 233 -233 294 -206 98 -676 222 -1117 295 -174
29 -492 73 -508 70 -4 -1 -43 -6 -87 -11z"/>
<path d="M93335 46434 c-224 -18 -342 -71 -396 -175 -27 -53 -26 -149 2 -206
31 -65 125 -144 231 -194 356 -170 738 -396 889 -526 66 -55 132 -133 154
-179 13 -28 15 -552 15 -4636 0 -3130 3 -4640 11 -4718 31 -343 132 -502 319
-504 89 -1 162 34 244 116 128 130 229 324 275 528 84 375 140 838 172 1410 5
107 14 799 18 1538 5 738 10 1344 12 1346 2 2 413 14 912 25 500 12 929 26
955 31 111 21 194 65 271 142 175 175 170 448 -11 613 -157 142 -321 178 -808
179 -395 1 -519 -27 -770 -175 -76 -44 -193 -92 -265 -107 -27 -6 -103 -13
-167 -16 l-118 -5 0 2212 c0 1381 4 2254 10 2324 18 199 -13 314 -111 419
-104 109 -248 186 -509 272 -611 200 -1098 305 -1335 286z"/>
<path d="M7185 46419 c-260 -18 -392 -76 -446 -194 -22 -48 -24 -133 -5 -179
32 -77 129 -155 267 -213 41 -18 139 -59 219 -93 369 -157 638 -328 722 -459
l28 -45 0 -3341 c0 -2273 3 -3368 11 -3425 21 -176 63 -284 136 -351 89 -82
190 -96 304 -42 166 78 332 338 403 633 94 391 137 885 162 1881 l6 266 852
12 c468 7 894 16 947 21 322 28 554 261 509 512 -33 181 -197 328 -435 389
-153 39 -496 48 -710 18 -172 -23 -297 -71 -454 -172 -119 -76 -184 -103 -279
-116 -51 -7 -289 -22 -407 -26 -13 0 -7 3799 6 3975 22 283 22 295 5 353 -34
117 -137 205 -324 277 -125 49 -540 177 -727 225 -166 43 -400 82 -535 90 -58
3 -114 7 -125 9 -11 1 -70 -1 -130 -5z"/>
<path d="M42060 46419 c-188 -24 -310 -64 -382 -128 -102 -89 -105 -239 -8
-342 57 -61 135 -108 268 -160 400 -156 858 -414 1002 -564 l35 -36 5 -4677
c5 -4447 6 -4682 23 -4781 52 -297 154 -436 336 -458 60 -7 104 7 179 57 224
150 368 576 459 1355 16 140 18 447 23 4405 6 3999 7 4262 24 4365 54 336 -60
488 -474 638 -447 162 -991 295 -1310 322 -41 3 -84 7 -95 9 -11 2 -49 -1 -85
-5z"/>
<path d="M76225 46420 c-60 -4 -126 -10 -145 -14 -201 -41 -302 -144 -287
-291 14 -139 116 -223 422 -345 378 -151 666 -328 763 -469 l37 -53 5 -2517 6
-2516 22 -99 c27 -117 71 -219 114 -263 l31 -32 -34 -5 c-19 -3 -58 -8 -87
-11 -29 -3 -109 -23 -178 -45 -103 -32 -150 -41 -262 -49 -438 -33 -1400 -65
-2322 -77 l-485 -6 -235 40 c-741 128 -1087 148 -1392 82 -198 -43 -301 -137
-302 -275 0 -72 24 -125 83 -178 58 -52 119 -80 321 -147 280 -93 464 -180
549 -260 37 -34 39 -39 55 -145 9 -60 57 -711 106 -1445 49 -734 97 -1383 105
-1443 18 -125 55 -257 91 -328 85 -170 260 -238 418 -166 89 41 180 139 243
262 47 92 123 296 123 330 0 7 4 16 10 20 23 14 1851 55 2450 55 465 0 760 -8
1135 -31 176 -11 209 -10 279 4 152 31 269 103 321 198 27 48 30 63 30 139 0
73 -4 92 -27 136 -58 111 -216 209 -422 262 -94 24 -105 29 -101 47 3 11 46
265 95 565 50 300 138 822 195 1160 101 592 107 620 151 735 76 197 86 234 82
300 -9 146 -98 213 -333 250 -49 7 -131 17 -181 20 l-91 7 46 46 c136 136 246
372 321 687 61 254 91 493 111 893 l12 232 66 0 c227 0 1790 52 1833 61 140
29 286 140 347 263 127 259 -19 539 -332 635 -99 30 -262 44 -527 44 -385 1
-553 -37 -752 -169 -81 -54 -207 -118 -288 -146 -38 -13 -96 -21 -187 -25
l-133 -6 0 1528 c0 1408 1 1536 18 1634 26 158 23 263 -9 331 -48 103 -159
190 -340 264 -98 40 -434 145 -654 205 -333 89 -669 135 -890 121z m730 -7482
c-3 -68 -15 -580 -26 -1138 -11 -558 -22 -1021 -24 -1027 -3 -9 -25 -13 -63
-13 -32 0 -107 -9 -167 -20 -248 -45 -304 -48 -1478 -81 -867 -25 -1160 -30
-1165 -22 -4 7 -25 470 -45 1030 -21 560 -41 1071 -44 1135 l-6 118 34 14 c35
14 248 27 1079 66 644 30 1407 56 1722 58 l188 2 -5 -122z"/>
<path d="M25175 46169 c-307 -18 -439 -53 -641 -169 -99 -58 -173 -91 -254
-114 -148 -42 -214 -44 -1855 -72 l-1590 -28 -150 37 c-408 100 -796 154
-1225 173 -145 6 -162 5 -263 -20 -153 -37 -247 -78 -312 -138 -139 -126 -98
-301 92 -401 37 -19 145 -59 238 -87 338 -103 447 -152 541 -245 50 -49 63
-69 72 -110 7 -33 12 -331 16 -870 4 -690 7 -834 21 -909 36 -206 104 -343
235 -477 127 -130 251 -203 452 -267 206 -66 138 -64 1778 -63 1817 0 2272 10
3390 76 357 21 404 32 542 122 171 112 254 287 214 450 -46 188 -236 317 -536
365 -117 18 -712 18 -830 0 -122 -19 -244 -63 -405 -143 -177 -90 -280 -132
-381 -158 -192 -50 -203 -51 -1077 -61 -455 -6 -961 -14 -1125 -20 -365 -12
-930 -3 -1024 15 -37 8 -87 23 -112 33 -41 18 -45 24 -55 71 -8 36 -11 349
-11 1011 l0 958 33 12 c45 17 1257 44 3112 69 831 12 1557 25 1615 31 58 5
132 16 165 25 150 40 298 144 353 249 24 45 27 62 27 146 -1 136 -25 192 -124
290 -88 87 -160 132 -274 172 -154 55 -323 67 -652 47z"/>
<path d="M2680 45450 c-144 -31 -213 -180 -144 -317 95 -191 624 -569 949
-679 95 -32 86 -32 993 -9 742 19 848 32 1041 127 103 51 181 124 219 205 23
48 27 71 26 138 0 68 -4 89 -29 138 -50 100 -172 196 -309 242 -138 45 -157
47 -861 50 -876 4 -1259 25 -1581 85 -128 24 -246 32 -304 20z"/>
<path d="M72232 45395 c-153 -34 -240 -137 -230 -274 8 -111 68 -188 258 -329
247 -183 465 -380 555 -504 86 -115 85 -97 4 -260 -344 -689 -829 -1343 -1499
-2022 -513 -520 -904 -849 -1431 -1203 -124 -84 -251 -176 -282 -207 -125
-119 -141 -254 -41 -346 54 -49 106 -64 209 -57 154 10 317 78 725 305 1048
583 1879 1256 2657 2151 l29 33 1033 -1006 c1126 -1096 1076 -1052 1219 -1077
46 -8 83 -8 138 0 148 22 249 93 311 219 38 75 38 77 38 196 0 110 -3 129 -31
208 -43 121 -95 207 -246 409 -165 220 -294 374 -429 510 -180 181 -304 261
-600 388 -101 43 -224 102 -274 131 -165 97 -448 295 -635 444 -69 55 -127
101 -129 102 -2 2 25 50 59 106 153 249 410 698 483 844 76 152 85 256 32 369
-66 139 -238 257 -750 516 -296 149 -501 240 -692 308 -162 58 -345 75 -481
46z"/>
<path d="M89403 45059 c-160 -19 -262 -116 -263 -249 0 -105 64 -198 219 -317
261 -202 480 -419 534 -530 26 -53 24 -60 -69 -311 -283 -760 -722 -1560
-1303 -2377 -601 -846 -1044 -1354 -1897 -2175 -173 -167 -210 -219 -221 -310
-8 -66 16 -128 67 -174 128 -116 315 -53 702 236 963 718 1936 1696 2658 2672
68 92 127 163 131 159 12 -14 1169 -1528 1593 -2085 248 -328 432 -560 471
-597 35 -32 90 -72 122 -87 52 -26 68 -29 158 -29 90 0 106 3 160 29 164 81
244 248 232 486 -10 199 -74 421 -186 647 -172 348 -338 586 -497 714 -38 30
-170 122 -293 205 -303 202 -601 453 -952 803 -196 196 -324 343 -397 458
l-33 52 129 238 c355 654 633 1189 675 1303 79 209 50 376 -90 522 -112 115
-278 227 -563 376 -507 266 -840 370 -1087 341z"/>
<path d="M37960 44769 c-189 -15 -299 -83 -331 -203 -38 -142 77 -283 347
-420 215 -109 471 -291 592 -421 51 -54 62 -72 62 -100 0 -59 -148 -425 -299
-740 -593 -1233 -1786 -2709 -2961 -3662 -209 -170 -277 -297 -221 -418 37
-82 113 -121 215 -112 191 16 484 185 1019 589 849 641 1708 1484 2314 2272
63 83 119 151 124 151 24 0 1609 -1958 1795 -2219 191 -266 439 -427 639 -414
173 11 314 134 354 309 17 73 13 245 -8 339 -65 291 -305 743 -523 984 -117
130 -261 230 -533 371 -172 89 -182 96 -330 229 -252 227 -444 418 -711 706
l-283 305 156 305 c265 516 277 541 342 685 35 77 84 183 108 236 53 117 77
223 68 299 -17 138 -78 221 -239 330 -432 289 -1084 557 -1461 600 -98 11 -97
11 -235 -1z"/>
<path d="M55467 44564 c-65 -20 -129 -85 -146 -147 -27 -95 1 -177 102 -306
51 -63 68 -93 73 -127 14 -94 -20 -127 -139 -137 -116 -10 -310 -46 -481 -89
-786 -197 -1358 -624 -1662 -1243 -150 -306 -213 -610 -201 -974 11 -343 82
-632 226 -926 119 -244 257 -431 472 -640 506 -490 1127 -725 1916 -725 319 0
557 27 823 95 619 156 1168 536 1512 1047 429 639 484 1516 137 2167 -314 588
-877 1008 -1590 1186 -57 14 -110 28 -117 30 -9 3 -4 22 19 66 86 172 69 316
-54 446 -103 109 -326 230 -485 264 -130 28 -338 35 -405 13z m483 -1584 c708
-88 1214 -529 1336 -1165 25 -126 24 -395 0 -525 -96 -500 -458 -908 -963
-1083 -205 -72 -401 -101 -673 -101 -270 1 -451 29 -667 105 -475 168 -826
592 -909 1099 -21 126 -21 366 0 495 90 558 491 988 1053 1131 91 23 263 50
373 58 84 6 354 -3 450 -14z"/>
<path d="M6420 44119 c-204 -21 -323 -59 -487 -152 -149 -85 -217 -114 -348
-146 -111 -28 -154 -32 -565 -56 -1033 -60 -1444 -75 -2000 -75 -673 0 -1157
34 -1620 112 -74 12 -174 21 -245 22 -105 1 -126 -2 -170 -22 -131 -60 -175
-181 -113 -306 50 -98 186 -196 537 -385 255 -137 466 -233 561 -255 132 -32
264 -12 402 58 48 25 113 50 145 55 92 17 489 59 703 76 107 8 215 17 240 20
25 3 133 10 239 15 223 11 214 14 256 -76 30 -63 33 -132 8 -162 -14 -15 -48
-25 -148 -42 -880 -149 -1528 -607 -1768 -1250 -65 -175 -82 -279 -82 -500 0
-163 4 -214 23 -310 34 -167 75 -288 148 -435 263 -531 825 -929 1509 -1070
247 -50 349 -59 675 -60 326 0 412 8 665 61 729 153 1348 660 1549 1269 239
727 -30 1458 -700 1904 -268 179 -604 312 -963 382 l-63 12 6 48 c8 62 -7 128
-50 213 -19 38 -33 70 -32 71 15 14 985 53 1748 69 565 13 621 16 693 35 261
69 420 259 387 463 -23 145 -111 253 -270 331 -163 81 -214 90 -520 93 -146 1
-303 -2 -350 -7z m-1835 -1984 c363 -55 656 -220 845 -475 251 -338 252 -836
3 -1189 -161 -229 -440 -403 -745 -465 -200 -41 -530 -46 -721 -11 -280 51
-501 161 -676 336 -229 229 -335 523 -302 839 21 197 79 350 191 499 201 267
493 423 885 474 85 11 428 6 520 -8z"/>
<path d="M26688 41480 c-99 -12 -222 -47 -328 -92 -205 -86 -379 -148 -475
-167 -158 -33 -275 -38 -1960 -96 -2469 -84 -3914 -87 -5075 -9 -313 21 -521
40 -685 65 -90 14 -168 20 -220 17 -169 -9 -268 -94 -268 -228 0 -150 129
-259 529 -449 413 -196 729 -327 934 -388 84 -25 110 -28 230 -28 160 1 217
17 394 111 150 79 205 91 526 119 562 48 2263 143 2293 128 4 -2 7 -969 7
-2148 0 -1428 4 -2177 11 -2246 15 -150 36 -244 73 -324 40 -86 74 -127 135
-163 63 -37 173 -39 239 -4 97 51 172 143 257 312 87 174 120 288 169 590 112
690 145 1414 146 3117 0 490 4 894 8 897 21 13 1010 30 1757 30 938 1 1412
-15 2185 -70 295 -21 406 -6 564 73 88 44 158 111 193 182 24 49 28 68 28 146
0 80 -3 97 -31 155 -55 114 -155 206 -309 283 -133 67 -223 90 -507 132 -362
54 -671 74 -820 55z"/>
<path d="M3375 38820 c-102 -24 -187 -54 -240 -84 -161 -95 -192 -271 -69
-390 56 -55 135 -89 385 -165 275 -85 469 -160 534 -205 88 -63 82 -23 94
-621 6 -291 13 -571 16 -622 13 -209 92 -404 217 -538 178 -191 413 -288 830
-343 123 -16 301 -17 2353 -17 l2220 0 70 22 c135 42 233 124 286 238 53 113
47 238 -19 358 -95 176 -314 300 -590 336 -134 18 -449 24 -627 12 -312 -20
-439 -52 -665 -167 -85 -44 -182 -85 -235 -100 -199 -55 -181 -54 -1335 -69
-700 -8 -1103 -10 -1155 -3 -192 22 -270 55 -292 120 -8 26 -14 251 -18 794
-6 662 -5 775 9 884 18 147 11 214 -30 291 -70 127 -217 198 -484 233 -281 37
-604 56 -935 55 -196 -1 -255 -4 -320 -19z"/>
<path d="M24890 28973 c-255 -38 -316 -55 -397 -108 -73 -48 -108 -111 -108
-190 2 -153 124 -251 495 -396 340 -133 692 -345 782 -472 l23 -32 5 -2170 c5
-2032 7 -2175 23 -2245 22 -90 65 -187 109 -242 l32 -41 -34 6 c-162 31 -402
60 -485 60 -125 0 -298 -37 -386 -84 -69 -37 -124 -96 -139 -148 -43 -156 53
-272 290 -351 172 -57 532 -258 562 -313 8 -15 10 -125 9 -387 -1 -200 -5
-367 -8 -370 -5 -5 -2413 -48 -2786 -49 l-229 -1 4 488 3 487 -27 57 c-70 149
-211 222 -538 277 -238 41 -702 82 -925 82 -384 1 -599 -111 -597 -312 1 -161
136 -264 466 -355 245 -67 454 -158 535 -232 l40 -37 11 -1760 c6 -975 15
-1811 21 -1875 21 -246 85 -386 205 -446 29 -14 60 -19 119 -19 70 0 89 4 146
32 121 60 250 215 339 407 37 80 107 276 129 361 l11 41 1442 22 c794 12 1490
24 1548 25 l104 2 13 -115 c30 -271 99 -426 222 -498 40 -24 57 -27 131 -27
73 0 92 4 138 27 114 59 204 160 306 343 76 138 106 257 140 565 48 428 65
923 76 2225 6 684 14 1131 21 1200 23 218 -2 316 -104 413 -79 74 -202 129
-397 177 -100 24 -100 24 -47 50 73 38 113 73 178 158 93 123 173 295 214 462
55 222 96 485 132 835 14 144 17 376 23 1805 6 1627 6 1641 28 1760 36 198 26
295 -39 383 -104 142 -403 260 -1032 406 -411 96 -683 137 -797 119z m770
-8893 l0 -730 -115 0 c-169 0 -2239 -28 -2592 -35 l-303 -6 0 726 0 725 138 1
c75 0 702 11 1392 23 690 13 1306 24 1368 25 l112 1 0 -730z"/>
<path d="M59355 28948 c-304 -34 -439 -126 -439 -298 0 -147 83 -224 379 -346
238 -98 573 -273 715 -372 86 -61 176 -147 211 -201 l29 -45 0 -4577 c0 -3078
3 -4618 10 -4705 34 -411 145 -596 368 -611 l67 -5 67 56 c111 92 207 235 272
402 117 302 177 787 217 1744 8 186 14 1513 19 4095 7 3407 9 3832 24 3930 18
129 20 212 6 285 -25 132 -105 233 -233 294 -206 98 -676 222 -1117 295 -174
29 -492 73 -508 70 -4 -1 -43 -6 -87 -11z"/>
<path d="M93335 28954 c-224 -18 -342 -71 -396 -175 -27 -53 -26 -149 2 -206
31 -65 125 -144 231 -194 356 -170 738 -396 889 -526 66 -55 132 -133 154
-179 13 -28 15 -552 15 -4636 0 -3130 3 -4640 11 -4718 31 -343 132 -502 319
-504 89 -1 162 34 244 116 128 130 229 324 275 528 84 375 140 838 172 1410 5
107 14 799 18 1538 5 738 10 1344 12 1346 2 2 413 14 912 25 500 12 929 26
955 31 111 21 194 65 271 142 175 175 170 448 -11 613 -157 142 -321 178 -808
179 -395 1 -519 -27 -770 -175 -76 -44 -193 -92 -265 -107 -27 -6 -103 -13
-167 -16 l-118 -5 0 2212 c0 1381 4 2254 10 2324 18 199 -13 314 -111 419
-104 109 -248 186 -509 272 -611 200 -1098 305 -1335 286z"/>
<path d="M76225 28940 c-60 -4 -126 -10 -145 -14 -201 -41 -302 -144 -287
-291 14 -139 116 -223 422 -345 378 -151 666 -328 763 -469 l37 -53 5 -2517 6
-2516 22 -99 c27 -117 71 -219 114 -263 l31 -32 -34 -5 c-19 -3 -58 -8 -87
-11 -29 -3 -109 -23 -178 -45 -103 -32 -150 -41 -262 -49 -438 -33 -1400 -65
-2322 -77 l-485 -6 -235 40 c-741 128 -1087 148 -1392 82 -198 -43 -301 -137
-302 -275 0 -72 24 -125 83 -178 58 -52 119 -80 321 -147 280 -93 464 -180
549 -260 37 -34 39 -39 55 -145 9 -60 57 -711 106 -1445 49 -734 97 -1383 105
-1443 18 -125 55 -257 91 -328 85 -170 260 -238 418 -166 89 41 180 139 243
262 47 92 123 296 123 330 0 7 4 16 10 20 23 14 1851 55 2450 55 465 0 760 -8
1135 -31 176 -11 209 -10 279 4 152 31 269 103 321 198 27 48 30 63 30 139 0
73 -4 92 -27 136 -58 111 -216 209 -422 262 -94 24 -105 29 -101 47 3 11 46
265 95 565 50 300 138 822 195 1160 101 592 107 620 151 735 76 197 86 234 82
300 -9 146 -98 213 -333 250 -49 7 -131 17 -181 20 l-91 7 46 46 c136 136 246
372 321 687 61 254 91 493 111 893 l12 232 66 0 c227 0 1790 52 1833 61 140
29 286 140 347 263 127 259 -19 539 -332 635 -99 30 -262 44 -527 44 -385 1
-553 -37 -752 -169 -81 -54 -207 -118 -288 -146 -38 -13 -96 -21 -187 -25
l-133 -6 0 1528 c0 1408 1 1536 18 1634 26 158 23 263 -9 331 -48 103 -159
190 -340 264 -98 40 -434 145 -654 205 -333 89 -669 135 -890 121z m730 -7482
c-3 -68 -15 -580 -26 -1138 -11 -558 -22 -1021 -24 -1027 -3 -9 -25 -13 -63
-13 -32 0 -107 -9 -167 -20 -248 -45 -304 -48 -1478 -81 -867 -25 -1160 -30
-1165 -22 -4 7 -25 470 -45 1030 -21 560 -41 1071 -44 1135 l-6 118 34 14 c35
14 248 27 1079 66 644 30 1407 56 1722 58 l188 2 -5 -122z"/>
<path d="M42035 28889 c-159 -20 -274 -75 -325 -155 -64 -101 -47 -210 46
-301 58 -56 166 -114 439 -233 401 -176 688 -361 777 -499 l28 -45 0 -2140 c0
-1390 4 -2180 10 -2251 17 -182 56 -306 119 -377 17 -20 31 -38 31 -40 0 -3
-46 -8 -102 -11 -76 -4 -134 -15 -221 -41 -65 -20 -140 -38 -165 -41 -62 -7
-737 -42 -1077 -55 -1085 -42 -2573 -41 -3235 1 -96 6 -222 14 -280 18 -199
12 -293 -9 -357 -83 -36 -40 -56 -115 -44 -166 31 -139 147 -232 497 -401 648
-313 753 -332 1055 -194 169 78 214 92 327 104 138 15 606 47 1022 71 570 32
2228 95 2238 85 10 -10 -64 -1166 -76 -1176 -13 -12 -182 -50 -306 -69 -108
-17 -267 -21 -1387 -40 -696 -12 -1315 -20 -1375 -18 -71 3 -212 22 -404 55
-360 63 -607 86 -920 87 l-235 1 -113 -33 c-243 -69 -342 -151 -342 -281 0
-93 57 -170 165 -221 33 -16 123 -45 199 -65 253 -65 455 -153 521 -226 l35
-39 0 -525 c0 -601 2 -622 75 -770 135 -276 419 -419 900 -455 106 -8 836 -10
2470 -8 2155 3 2324 5 2383 21 197 54 306 167 331 343 40 280 -151 475 -517
529 -263 38 -734 43 -898 9 -100 -20 -228 -69 -346 -133 -63 -34 -130 -59
-208 -80 -218 -57 -248 -60 -800 -71 -566 -11 -2259 -14 -2309 -4 -63 13 -61
-9 -54 631 l6 581 26 13 c17 9 80 14 181 16 601 11 1267 26 1745 38 308 8 745
19 970 25 762 19 1038 30 1130 46 160 26 272 96 315 196 32 74 26 194 -13 260
-56 96 -174 175 -317 213 -36 9 -70 19 -77 20 -8 3 7 75 48 237 97 376 238
891 253 923 7 17 43 69 78 116 84 112 112 176 112 255 -1 165 -151 259 -461
289 l-71 7 52 52 c66 65 120 144 184 271 105 210 158 469 202 985 37 443 41
623 50 2185 8 1488 10 1567 29 1710 16 116 19 163 11 208 -29 185 -187 283
-720 448 -544 167 -997 236 -1305 198z"/>
<path d="M5195 28236 c-120 -38 -177 -107 -178 -216 0 -87 41 -167 147 -278
80 -84 86 -94 86 -133 0 -33 -6 -47 -31 -70 -33 -31 -120 -61 -229 -79 -687
-114 -1247 -388 -1650 -806 -439 -456 -653 -965 -653 -1559 0 -278 38 -519
124 -780 274 -831 1032 -1478 1979 -1689 584 -129 1245 -107 1800 61 604 183
1155 599 1475 1114 437 704 467 1588 79 2290 -114 205 -261 395 -450 579 -304
297 -673 513 -1127 659 -128 42 -396 111 -428 111 -29 0 -30 16 -4 62 77 134
85 271 24 374 -50 83 -141 154 -294 229 -159 78 -223 100 -371 125 -131 23
-240 25 -299 6z m734 -1621 c292 -42 545 -133 761 -273 337 -218 575 -541 670
-907 42 -161 53 -260 52 -450 -1 -452 -147 -810 -457 -1120 -219 -218 -446
-352 -749 -440 -294 -85 -687 -106 -1036 -55 -232 34 -412 90 -611 191 -162
82 -284 172 -424 313 -232 232 -362 476 -427 798 -19 97 -23 143 -22 328 0
195 3 227 28 344 74 352 250 643 531 879 134 113 337 228 515 292 150 53 394
103 585 119 110 9 474 -3 584 -19z"/>
<path d="M38209 28186 c-105 -37 -160 -101 -167 -194 -2 -31 1 -76 7 -98 14
-52 72 -142 144 -222 32 -34 57 -68 57 -75 0 -16 -76 -63 -125 -76 -22 -6
-111 -22 -197 -36 -657 -107 -1173 -354 -1548 -741 -389 -402 -569 -826 -570
-1343 -1 -599 260 -1129 753 -1532 395 -323 849 -507 1427 -575 179 -22 601
-25 770 -5 459 52 862 192 1197 415 497 332 811 779 918 1311 130 642 -66
1252 -560 1741 -271 268 -633 478 -1065 619 -63 21 -116 39 -118 40 -1 1 15
36 37 76 99 185 70 326 -92 445 -71 53 -239 136 -377 187 -182 68 -401 96
-491 63z m493 -1490 c396 -61 698 -221 922 -487 207 -245 296 -492 296 -818 0
-148 -15 -265 -50 -380 -93 -314 -355 -619 -669 -780 -259 -133 -550 -190
-911 -178 -517 17 -917 188 -1185 509 -134 160 -209 306 -262 507 -34 129 -43
397 -19 543 58 353 256 654 561 850 219 142 474 221 805 252 88 8 417 -4 512
-18z"/>
<path d="M20935 28096 c-224 -56 -281 -252 -124 -429 42 -49 168 -136 339
-236 132 -77 228 -156 325 -268 83 -94 115 -147 115 -188 0 -33 -73 -187 -188
-398 -703 -1281 -1936 -2634 -3177 -3486 -142 -98 -217 -168 -250 -235 -67
-133 8 -288 150 -315 145 -27 335 57 909 401 969 581 1936 1393 2570 2157 61
74 121 146 133 160 l22 26 241 -240 c392 -390 1044 -1069 1387 -1445 157 -172
265 -269 385 -347 171 -109 342 -133 479 -66 82 41 150 111 191 200 65 139 45
346 -56 559 -148 312 -479 732 -687 870 -84 56 -224 118 -397 178 -154 53
-306 120 -398 174 -102 60 -492 379 -712 584 l-63 58 109 163 c190 281 453
707 514 831 86 175 102 226 103 326 0 74 -4 93 -28 143 -46 92 -125 169 -282
272 -445 293 -954 519 -1250 554 -117 14 -297 13 -360 -3z"/>
<path d="M72232 27915 c-153 -34 -240 -137 -230 -274 8 -111 68 -188 258 -329
247 -183 465 -380 555 -504 86 -115 85 -97 4 -260 -344 -689 -829 -1343 -1499
-2022 -513 -520 -904 -849 -1431 -1203 -124 -84 -251 -176 -282 -207 -125
-119 -141 -254 -41 -346 54 -49 106 -64 209 -57 154 10 317 78 725 305 1048
583 1879 1256 2657 2151 l29 33 1033 -1006 c1126 -1096 1076 -1052 1219 -1077
46 -8 83 -8 138 0 148 22 249 93 311 219 38 75 38 77 38 196 0 110 -3 129 -31
208 -43 121 -95 207 -246 409 -165 220 -294 374 -429 510 -180 181 -304 261
-600 388 -101 43 -224 102 -274 131 -165 97 -448 295 -635 444 -69 55 -127
101 -129 102 -2 2 25 50 59 106 153 249 410 698 483 844 76 152 85 256 32 369
-66 139 -238 257 -750 516 -296 149 -501 240 -692 308 -162 58 -345 75 -481
46z"/>
<path d="M89403 27579 c-160 -19 -262 -116 -263 -249 0 -105 64 -198 219 -317
261 -202 480 -419 534 -530 26 -53 24 -60 -69 -311 -283 -760 -722 -1560
-1303 -2377 -601 -846 -1044 -1354 -1897 -2175 -173 -167 -210 -219 -221 -310
-8 -66 16 -128 67 -174 128 -116 315 -53 702 236 963 718 1936 1696 2658 2672
68 92 127 163 131 159 12 -14 1169 -1528 1593 -2085 248 -328 432 -560 471
-597 35 -32 90 -72 122 -87 52 -26 68 -29 158 -29 90 0 106 3 160 29 164 81
244 248 232 486 -10 199 -74 421 -186 647 -172 348 -338 586 -497 714 -38 30
-170 122 -293 205 -303 202 -601 453 -952 803 -196 196 -324 343 -397 458
l-33 52 129 238 c355 654 633 1189 675 1303 79 209 50 376 -90 522 -112 115
-278 227 -563 376 -507 266 -840 370 -1087 341z"/>
<path d="M55467 27084 c-65 -20 -129 -85 -146 -147 -27 -95 1 -177 102 -306
51 -63 68 -93 73 -127 14 -94 -20 -127 -139 -137 -116 -10 -310 -46 -481 -89
-786 -197 -1358 -624 -1662 -1243 -150 -306 -213 -610 -201 -974 11 -343 82
-632 226 -926 119 -244 257 -431 472 -640 506 -490 1127 -725 1916 -725 319 0
557 27 823 95 619 156 1168 536 1512 1047 429 639 484 1516 137 2167 -314 588
-877 1008 -1590 1186 -57 14 -110 28 -117 30 -9 3 -4 22 19 66 86 172 69 316
-54 446 -103 109 -326 230 -485 264 -130 28 -338 35 -405 13z m483 -1584 c708
-88 1214 -529 1336 -1165 25 -126 24 -395 0 -525 -96 -500 -458 -908 -963
-1083 -205 -72 -401 -101 -673 -101 -270 1 -451 29 -667 105 -475 168 -826
592 -909 1099 -21 126 -21 366 0 495 90 558 491 988 1053 1131 91 23 263 50
373 58 84 6 354 -3 450 -14z"/>
<path d="M4760 22414 c-150 -23 -215 -46 -269 -97 -89 -85 -95 -219 -15 -325
42 -54 121 -97 280 -152 187 -65 310 -128 385 -197 95 -89 90 -41 87 -793 l-3
-655 -205 -8 c-354 -14 -2025 -13 -2325 1 -686 32 -1226 82 -1700 158 -217 35
-383 42 -459 20 -73 -21 -139 -84 -156 -148 -37 -135 52 -282 251 -413 97 -64
605 -322 834 -423 99 -44 230 -97 290 -118 97 -33 124 -38 232 -42 155 -6 223
9 447 95 92 36 182 69 200 74 109 33 248 51 569 74 2475 175 5105 180 6897 14
353 -33 508 -17 686 71 100 49 172 122 204 208 33 86 25 206 -18 293 -45 91
-109 159 -221 234 -179 119 -376 184 -691 229 -252 36 -434 49 -605 43 -202
-7 -249 -18 -553 -126 -94 -34 -211 -65 -340 -92 -189 -38 -212 -41 -567 -59
-418 -22 -1451 -68 -1623 -72 l-114 -3 2 175 c3 421 31 1399 41 1450 15 74 7
176 -19 225 -29 59 -113 132 -188 166 -154 70 -483 131 -998 184 -138 14 -276
18 -336 9z"/>
<path d="M22643 11520 c-54 -11 -92 -31 -124 -67 -94 -101 -76 -244 50 -386
59 -68 81 -105 81 -142 0 -21 -8 -30 -42 -45 -24 -11 -55 -20 -69 -20 -32 0
-235 -41 -350 -70 -859 -219 -1461 -713 -1678 -1377 -62 -188 -76 -287 -76
-518 0 -225 17 -339 79 -528 93 -284 239 -510 477 -742 461 -449 1029 -684
1774 -736 659 -46 1234 93 1695 409 613 420 910 978 887 1667 -7 196 -26 305
-86 483 -148 444 -473 822 -931 1086 -198 113 -494 229 -730 286 -52 12 -98
26 -102 29 -4 4 4 35 19 71 102 254 -91 446 -572 570 -123 31 -239 43 -302 30z
m667 -1421 c444 -72 783 -313 966 -684 155 -316 157 -728 5 -1040 -149 -304
-423 -541 -754 -649 -177 -58 -280 -71 -557 -71 -278 1 -395 15 -591 71 -631
181 -1010 691 -950 1278 47 470 356 842 838 1009 310 109 705 141 1043 86z"/>
<path d="M58920 11489 c-297 -34 -443 -131 -441 -295 0 -72 39 -144 106 -197
58 -46 191 -112 390 -192 310 -126 637 -302 738 -397 l37 -35 -2 -1604 -3
-1604 -215 -58 c-118 -31 -469 -122 -780 -202 -469 -120 -680 -172 -1182 -289
-10 -2 -18 -2 -18 1 0 2 51 116 114 251 62 136 148 328 189 427 41 99 123 288
182 420 211 471 247 551 267 600 77 192 47 338 -101 486 -63 62 -97 85 -196
136 -218 111 -622 269 -843 329 -90 25 -106 26 -257 21 -191 -5 -256 -23 -333
-91 -60 -52 -82 -160 -49 -238 24 -57 100 -132 207 -203 150 -101 258 -202
351 -329 55 -74 55 -77 -11 -472 -33 -198 -77 -452 -99 -564 -22 -113 -70
-371 -106 -575 -37 -203 -69 -372 -71 -374 -9 -9 -974 -145 -1469 -206 -860
-107 -1268 -139 -1775 -139 -428 -1 -526 7 -755 60 -235 55 -387 42 -468 -39
-88 -88 -88 -211 -1 -330 73 -100 176 -167 514 -336 443 -220 731 -345 886
-386 75 -19 206 -19 297 1 43 9 135 46 227 90 l155 74 390 79 c1954 398 3333
754 4666 1207 152 52 279 94 282 94 3 0 7 -228 9 -507 4 -486 5 -511 26 -586
54 -195 160 -288 313 -274 149 13 285 134 418 369 99 176 209 671 243 1094
l12 152 236 6 c129 3 543 11 920 17 729 11 761 14 858 63 121 62 227 180 262
293 75 242 -70 467 -355 552 -108 32 -218 41 -493 41 -455 0 -569 -26 -823
-187 -167 -107 -265 -139 -444 -148 l-131 -7 3 1439 c3 1387 4 1444 25 1613
32 270 16 352 -90 453 -116 109 -247 168 -644 286 -352 105 -614 164 -912 206
-119 16 -143 17 -256 4z"/>
<path d="M42100 11420 c-81 -11 -129 -26 -188 -60 -146 -85 -171 -262 -54
-379 60 -58 136 -99 287 -151 254 -87 703 -350 814 -477 l41 -46 0 -2281 c0
-1490 4 -2319 10 -2391 21 -222 67 -354 150 -428 147 -133 351 -65 504 167
162 244 236 504 296 1029 36 321 41 521 55 2267 13 1508 17 1757 31 1835 23
134 16 273 -18 348 -48 102 -164 194 -338 268 -96 41 -692 211 -830 238 -298
56 -608 81 -760 61z"/>
<path d="M93335 11293 c-88 -7 -242 -36 -291 -54 -116 -44 -184 -130 -184
-233 1 -141 104 -231 375 -332 226 -83 444 -207 519 -296 l36 -42 0 -368 c0
-202 -1 -368 -2 -368 -19 -2 -3279 -50 -3370 -50 l-127 0 -3 473 -3 472 -28
57 c-90 183 -297 260 -837 312 -436 42 -648 45 -813 12 -252 -52 -371 -149
-372 -306 0 -77 31 -139 92 -188 59 -46 89 -58 328 -137 359 -118 536 -203
576 -277 10 -18 16 -355 25 -1488 11 -1267 14 -1477 28 -1554 36 -195 104
-337 192 -399 63 -44 98 -55 180 -56 63 -1 80 3 144 35 43 22 100 62 141 101
63 60 75 79 160 248 l91 182 261 7 c579 14 3338 58 3343 53 3 -3 12 -38 21
-79 31 -155 115 -267 225 -304 115 -38 264 -2 385 94 122 97 234 297 277 492
93 426 133 1258 137 2865 2 683 4 658 -61 749 -74 103 -194 163 -465 230 -167
42 -881 160 -927 154 -7 -1 -31 -3 -53 -5z m455 -2938 c0 -333 -1 -606 -2
-606 -7 -4 -3484 -55 -3490 -52 -7 4 -12 1201 -5 1204 1 1 776 14 1722 29 946
15 1732 28 1748 29 l27 1 0 -605z"/>
<path d="M77413 10799 c-39 -4 -133 -24 -210 -43 -306 -77 -273 -74 -1202
-101 -465 -14 -967 -29 -1116 -35 -794 -29 -1082 -34 -1725 -35 -728 0 -891 6
-1290 46 -107 10 -280 34 -385 51 -148 25 -221 32 -330 32 -134 1 -142 0 -198
-27 -75 -37 -109 -86 -115 -166 -12 -162 135 -291 556 -491 250 -119 457 -203
602 -247 86 -25 109 -28 245 -28 170 0 241 15 397 85 134 61 235 77 633 99
924 54 2329 110 3479 141 208 6 380 9 381 8 5 -5 -44 -600 -60 -738 -69 -585
-242 -1507 -406 -2165 -44 -174 -107 -406 -113 -412 -6 -7 -1646 -83 -2321
-108 -1338 -49 -2483 -45 -3370 10 -280 18 -612 48 -775 71 -137 19 -300 22
-355 6 -117 -34 -194 -132 -182 -232 8 -66 30 -105 92 -165 104 -100 296 -193
840 -410 479 -190 614 -223 798 -192 54 9 139 33 190 53 372 145 282 134 1677
199 646 30 1194 55 1217 55 l43 0 3 -2557 c3 -2422 4 -2562 21 -2633 25 -104
67 -191 114 -238 65 -65 95 -77 192 -77 75 0 91 3 138 29 92 51 178 153 253
301 186 362 249 673 289 1420 5 99 14 857 20 1685 6 828 14 1647 18 1820 l7
315 145 7 c619 28 929 33 1920 33 1075 0 1150 -2 1719 -41 266 -19 379 -12
509 32 160 53 241 114 287 215 25 56 27 70 23 148 -3 74 -9 95 -38 149 -40 76
-143 176 -232 226 -89 49 -255 102 -378 120 -169 25 -491 47 -680 47 -197 1
-258 -11 -411 -77 -176 -75 -203 -85 -316 -115 -111 -28 -129 -30 -427 -38
-171 -5 -312 -8 -313 -7 -1 1 31 85 71 187 196 493 452 1279 738 2264 60 209
135 461 165 560 l55 180 108 105 c131 128 172 200 171 300 -1 210 -197 305
-756 364 -192 20 -327 25 -412 15z"/>
<path d="M5195 10756 c-120 -38 -177 -107 -178 -216 0 -87 41 -167 147 -278
80 -84 86 -94 86 -133 0 -33 -6 -47 -31 -70 -33 -31 -120 -61 -229 -79 -687
-114 -1247 -388 -1650 -806 -439 -456 -653 -965 -653 -1559 0 -278 38 -519
124 -780 274 -831 1032 -1478 1979 -1689 584 -129 1245 -107 1800 61 604 183
1155 599 1475 1114 437 704 467 1588 79 2290 -114 205 -261 395 -450 579 -304
297 -673 513 -1127 659 -128 42 -396 111 -428 111 -29 0 -30 16 -4 62 77 134
85 271 24 374 -50 83 -141 154 -294 229 -159 78 -223 100 -371 125 -131 23
-240 25 -299 6z m734 -1621 c292 -42 545 -133 761 -273 337 -218 575 -541 670
-907 42 -161 53 -260 52 -450 -1 -452 -147 -810 -457 -1120 -219 -218 -446
-352 -749 -440 -294 -85 -687 -106 -1036 -55 -232 34 -412 90 -611 191 -162
82 -284 172 -424 313 -232 232 -362 476 -427 798 -19 97 -23 143 -22 328 0
195 3 227 28 344 74 352 250 643 531 879 134 113 337 228 515 292 150 53 394
103 585 119 110 9 474 -3 584 -19z"/>
<path d="M37572 10749 c-119 -60 -153 -207 -77 -334 39 -67 109 -125 375 -312
525 -369 504 -358 731 -378 133 -12 217 -13 444 -5 154 5 415 14 580 20 545
19 726 40 842 96 316 153 347 536 56 683 -128 64 -116 63 -823 71 -355 4 -721
13 -815 19 -362 24 -783 81 -980 132 -44 11 -127 23 -185 25 -94 5 -110 3
-148 -17z"/>
<path d="M57905 10253 c-269 -21 -462 -70 -610 -152 -88 -49 -227 -99 -320
-115 -145 -25 -445 -56 -650 -66 -104 -6 -289 -16 -410 -24 -432 -29 -786 -39
-1180 -33 -586 8 -838 35 -1315 136 -229 49 -387 4 -436 -124 -37 -97 0 -199
110 -302 85 -81 181 -143 411 -268 339 -185 537 -270 662 -283 127 -14 292 12
392 63 112 56 206 73 631 115 739 72 1401 101 2660 119 580 8 586 9 680 34
166 43 335 135 398 215 57 72 76 127 77 223 0 79 -3 91 -38 161 -77 157 -237
249 -507 293 -87 14 -424 19 -555 8z"/>
<path d="M40520 9189 c-63 -6 -169 -23 -235 -40 -202 -50 -698 -94 -1470 -131
-356 -17 -1424 -17 -1620 0 -226 19 -377 39 -547 71 -217 41 -290 47 -369 27
-73 -19 -124 -55 -152 -109 -93 -180 61 -346 533 -576 381 -184 586 -254 750
-254 90 0 104 3 275 61 198 68 261 79 690 126 395 43 789 70 1230 82 l239 7
-34 -46 c-72 -101 -271 -352 -375 -473 -890 -1042 -2020 -1927 -3415 -2676
-344 -185 -383 -207 -451 -257 -92 -68 -132 -128 -137 -206 -5 -80 25 -138 93
-180 45 -28 55 -30 139 -29 117 1 232 32 459 123 1120 449 2127 1041 3136
1844 97 77 193 156 214 174 21 19 45 32 52 29 13 -4 237 -181 835 -656 380
-303 658 -511 864 -649 201 -134 259 -156 394 -149 113 6 183 38 270 124 79
79 114 151 120 250 12 185 -73 341 -323 589 -175 175 -309 289 -454 387 -198
132 -332 186 -601 243 -195 41 -284 67 -355 103 -93 47 -255 164 -255 184 0
12 165 207 345 408 131 146 457 527 653 761 103 124 133 153 192 189 230 136
329 344 232 489 -59 88 -160 133 -333 150 -160 16 -461 21 -589 10z"/>
<path d="M54172 8959 c-70 -35 -121 -118 -122 -199 0 -58 28 -148 84 -270 105
-227 254 -614 364 -950 79 -241 144 -495 197 -770 47 -242 69 -323 108 -389
88 -149 270 -202 430 -126 139 66 280 248 396 512 40 93 41 94 47 256 8 186
-2 252 -63 417 -105 282 -239 477 -618 900 -67 74 -174 200 -239 280 -157 192
-256 282 -371 336 -66 31 -153 32 -213 3z"/>
<path d="M26757 6909 c-98 -13 -242 -51 -392 -104 -153 -54 -281 -89 -385
-104 -236 -34 -2230 -127 -3435 -161 -203 -6 -534 -15 -735 -21 -622 -17
-1889 -23 -2290 -10 -591 19 -908 45 -1185 98 -116 23 -168 27 -305 28 -161 0
-166 -1 -216 -27 -161 -85 -176 -250 -37 -399 94 -101 162 -144 399 -257 398
-190 644 -294 834 -353 96 -30 117 -33 235 -33 145 0 147 0 372 103 155 71
224 87 493 115 280 30 559 56 599 56 l29 0 6 -427 c9 -583 21 -865 40 -933 9
-30 16 -60 16 -65 0 -11 -45 -11 -390 6 -246 11 -472 30 -650 55 -148 21 -292
23 -353 5 -26 -8 -67 -31 -91 -53 -103 -90 -100 -231 8 -340 60 -61 137 -107
366 -223 335 -168 573 -262 744 -291 140 -24 251 -6 465 75 72 28 164 57 206
66 78 16 765 47 1740 79 253 9 516 18 585 21 153 7 1401 72 1487 78 l63 5 3
-1592 c2 -1449 4 -1597 20 -1659 23 -96 58 -168 108 -222 67 -73 107 -90 214
-90 79 0 96 4 144 29 311 163 479 716 546 1796 18 292 35 992 35 1463 l0 339
34 78 c49 110 66 174 66 244 0 150 -103 247 -312 295 -165 39 -546 68 -683 53
-49 -6 -91 -9 -93 -8 -1 2 23 56 53 120 77 164 124 363 160 673 12 105 34 458
35 569 0 20 6 21 183 27 304 11 1323 -17 1762 -49 471 -33 560 -31 708 23 157
56 258 137 315 251 35 73 37 81 37 176 0 90 -3 107 -27 154 -39 75 -75 117
-141 163 -115 81 -201 104 -537 143 -390 46 -677 57 -853 35z m-2504 -1256 c4
-186 7 -457 7 -603 0 -276 8 -386 36 -496 9 -36 14 -67 13 -69 -4 -3 -751 -35
-1274 -55 -472 -17 -1146 -31 -1366 -28 l-217 3 59 80 c92 126 166 332 214
590 30 165 42 291 56 585 6 129 12 236 13 237 5 5 1993 81 2397 92 l56 1 6
-337z"/>
<path d="M95885 6384 c-11 -2 -60 -14 -110 -26 -49 -11 -139 -40 -200 -63
-160 -62 -282 -89 -635 -140 -352 -51 -309 -48 -1480 -85 -1535 -47 -2460 -67
-3510 -76 -1323 -11 -2041 22 -2618 121 -250 43 -374 30 -458 -47 -33 -30 -48
-55 -60 -94 -36 -125 30 -234 207 -343 142 -87 768 -358 1067 -461 218 -76
327 -100 451 -100 134 0 200 17 381 97 133 59 273 103 375 117 164 23 724 52
1755 91 74 2 216 6 315 7 l180 3 6 -1300 c5 -1286 5 -1301 26 -1387 57 -229
169 -342 338 -342 309 0 555 436 645 1139 34 270 40 411 50 1174 6 415 11 756
13 757 9 8 756 26 1537 36 951 12 1937 2 2335 -23 273 -18 430 -16 504 4 204
56 337 184 372 359 24 118 -28 256 -132 352 -142 132 -296 182 -649 211 -185
16 -667 29 -705 19z"/>
<path d="M43095 5130 c-88 -8 -117 -15 -245 -67 l-85 -34 -355 -19 c-345 -18
-805 -40 -1315 -61 -137 -5 -531 -12 -875 -16 -766 -7 -1299 9 -1815 53 -391
34 -458 30 -537 -36 -110 -91 -100 -234 25 -346 101 -90 293 -190 673 -352
365 -155 470 -166 688 -70 150 66 211 86 293 97 99 13 3330 137 3339 128 6 -6
-32 -1027 -39 -1033 -1 -1 -111 -21 -245 -43 l-242 -41 -1335 -17 -1335 -17
-117 22 c-317 58 -592 86 -983 98 -197 6 -224 4 -320 -16 -220 -45 -310 -92
-355 -185 -23 -47 -27 -64 -22 -107 8 -67 50 -135 108 -174 28 -18 117 -54
220 -87 207 -68 337 -129 407 -192 l52 -47 0 -497 c0 -552 1 -557 66 -682 96
-182 342 -361 599 -433 221 -63 57 -59 2570 -63 1541 -3 2328 -1 2406 6 137
13 220 36 308 88 205 122 272 311 179 510 -12 27 -51 78 -88 114 -52 53 -86
76 -170 117 -177 86 -269 101 -675 109 -403 7 -496 -10 -767 -141 -185 -89
-287 -118 -523 -146 -117 -15 -2582 -49 -2693 -39 -112 11 -167 36 -176 79 -3
18 -6 252 -6 521 l0 488 27 20 c14 12 36 23 47 26 12 2 881 13 1931 25 1051
11 1944 25 1986 30 212 26 334 141 333 315 -1 157 -103 270 -312 341 -52 18
-96 35 -99 37 -2 3 21 94 52 203 31 110 92 338 136 508 67 262 85 320 119 380
89 157 114 217 118 288 3 54 0 76 -17 112 -71 146 -294 226 -671 242 -74 3
-146 6 -160 8 -14 1 -61 -1 -105 -4z"/>
<path d="M59900 5039 c-42 -4 -139 -24 -216 -43 -126 -32 -168 -37 -439 -55
-1005 -69 -1856 -96 -2705 -88 -615 6 -886 16 -1195 44 -262 23 -401 27 -461
14 -137 -31 -221 -150 -190 -270 28 -107 111 -174 371 -301 332 -163 627 -275
788 -301 91 -14 217 -7 297 16 30 9 104 39 163 67 141 66 186 72 727 103 519
29 2576 102 2586 92 6 -6 -46 -824 -65 -1017 l-6 -65 -190 -32 c-169 -29 -224
-34 -500 -43 -574 -18 -1136 -30 -1745 -37 l-605 -6 -100 26 c-234 62 -547 97
-930 104 -317 6 -380 0 -560 -52 -212 -62 -292 -138 -283 -270 3 -49 10 -70
32 -99 63 -83 127 -113 387 -181 181 -48 312 -93 374 -128 l40 -23 5 -554 5
-555 27 -80 c94 -277 324 -444 704 -510 200 -35 306 -36 2784 -33 2327 3 2448
4 2504 22 189 57 299 174 327 346 17 110 -17 233 -91 322 -68 82 -220 159
-381 192 -192 39 -760 47 -929 12 -121 -25 -265 -75 -368 -128 -105 -53 -264
-107 -387 -132 -119 -24 -780 -36 -2037 -36 l-1067 0 -28 24 -28 24 -3 531 -3
532 33 13 c25 10 160 15 588 20 698 8 1362 22 2010 42 278 8 683 19 900 24
413 8 449 12 556 59 62 28 128 94 154 153 18 43 22 65 18 123 -11 161 -125
274 -353 346 -38 12 -71 23 -72 24 -7 5 73 272 137 460 123 359 177 486 330
774 64 122 74 224 30 311 -20 40 -83 101 -127 123 -90 46 -278 80 -508 92 -66
3 -145 7 -175 9 -30 2 -89 0 -130 -5z"/>
<path d="M4760 4934 c-150 -23 -215 -46 -269 -97 -89 -85 -95 -219 -15 -325
42 -54 121 -97 280 -152 187 -65 310 -128 385 -197 95 -89 90 -41 87 -793 l-3
-655 -205 -8 c-354 -14 -2025 -13 -2325 1 -686 32 -1226 82 -1700 158 -217 35
-383 42 -459 20 -73 -21 -139 -84 -156 -148 -37 -135 52 -282 251 -413 97 -64
605 -322 834 -423 99 -44 230 -97 290 -118 97 -33 124 -38 232 -42 155 -6 223
9 447 95 92 36 182 69 200 74 109 33 248 51 569 74 2475 175 5105 180 6897 14
353 -33 508 -17 686 71 100 49 172 122 204 208 33 86 25 206 -18 293 -45 91
-109 159 -221 234 -179 119 -376 184 -691 229 -252 36 -434 49 -605 43 -202
-7 -249 -18 -553 -126 -94 -34 -211 -65 -340 -92 -189 -38 -212 -41 -567 -59
-418 -22 -1451 -68 -1623 -72 l-114 -3 2 175 c3 421 31 1399 41 1450 15 74 7
176 -19 225 -29 59 -113 132 -188 166 -154 70 -483 131 -998 184 -138 14 -276
18 -336 9z"/>
<path d="M88534 4205 c-170 -31 -260 -70 -326 -144 -72 -80 -85 -169 -39 -259
49 -94 123 -133 375 -197 373 -96 572 -172 649 -248 l36 -37 4 -722 c4 -808 2
-783 77 -943 142 -305 484 -504 980 -572 128 -17 261 -18 2580 -18 2357 0
2447 1 2513 19 221 61 355 272 303 476 -60 235 -297 389 -663 432 -150 17
-763 17 -863 0 -117 -20 -265 -74 -427 -156 -266 -133 -159 -125 -1755 -140
-729 -7 -1362 -9 -1405 -4 -175 19 -242 59 -261 158 -14 72 -24 1655 -11 1730
5 30 12 93 15 140 5 73 3 93 -16 144 -70 183 -288 267 -845 326 -294 30 -792
39 -921 15z"/>
</g>
</svg>
